<?xml version="1.0" encoding="utf-8"?>
<!-- Generator: Adobe Illustrator 19.0.1, SVG Export Plug-In . SVG Version: 6.00 Build 0)  -->
<!DOCTYPE svg PUBLIC "-//W3C//DTD SVG 1.1//EN" "http://www.w3.org/Graphics/SVG/1.1/DTD/svg11.dtd">
<svg version="1.1" id="Layer_1" xmlns="http://www.w3.org/2000/svg" xmlns:xlink="http://www.w3.org/1999/xlink" x="0px" y="0px"
	 viewBox="0 0 400 400" style="enable-background:new 0 0 400 400;" xml:space="preserve">
<style type="text/css">
	.st0{fill:none;stroke:#B09676;stroke-width:0.75;stroke-miterlimit:10;}
</style>
<polygon class="st0" points="164.2,334.3 235.9,334.3 317.6,192.6 281.8,130.5 118.2,130.5 82.4,192.6 164.2,334.3 "/>
<path class="st0" d="M104.7,231.5l21.3,36.9c23.5-8.4,48.4-12.7,74-12.7c25.6,0,50.5,4.3,74,12.7l21.3-36.9
	c-30.2-11.2-62.2-16.9-95.3-16.9C166.9,214.6,134.9,220.3,104.7,231.5L104.7,231.5z"/>
<g>
	<path class="st0" d="M237.3,336.8h-74.7l-0.4-0.6L79.4,192.6l37.3-64.7h166.6l37.3,64.7l-0.4,0.6L237.3,336.8L237.3,336.8z
		 M164.2,334.3h71.7l81.8-141.7l-35.8-62.1H118.2l-35.8,62.1L164.2,334.3L164.2,334.3z"/>
</g>
<g>
	<path class="st0" d="M243.1,346.8h-86.2l-89-154.2l43.1-74.7H289l43.1,74.7L243.1,346.8L243.1,346.8z M161.2,339.3h77.5l84.7-146.7
		l-38.8-67.1H115.3l-38.8,67.1L161.2,339.3L161.2,339.3z"/>
</g>
<g>
	<g>
		<g>
			<g>
				<g>
					<path class="st0" d="M228.6,86.3c-3.4,0-7.5-1.3-11.5-3.8c-15-9.3-32.1-31.9-38.6-47.1c-0.2-0.5,0-1.2,0.6-1.4
						c0.5-0.2,1.2,0,1.4,0.6c6.2,14.6,23.3,37.2,37.8,46.1c4.8,2.9,9.5,4.1,12.8,3.2c1.8-0.5,3.2-1.6,4.1-3.3
						c1.3-2.4,0.8-4.2,0.1-5.2c-0.9-1.4-2.7-2.4-4.4-2.3c-1.4,0.1-2.5,0.8-3.2,2.1c-0.3,0.5-0.9,0.7-1.4,0.5
						c-0.5-0.3-0.8-0.9-0.5-1.4c1-2,2.8-3.2,5-3.3c2.5-0.1,4.9,1.1,6.3,3.2c1.4,2.2,1.4,4.8,0,7.4c-1.2,2.2-3,3.7-5.4,4.4
						C230.6,86.2,229.6,86.3,228.6,86.3L228.6,86.3z"/>
				</g>
				<g>
					<path class="st0" d="M255.1,105.6c-21.1,0-49.8-10.1-70.3-39c-0.3-0.5-0.2-1.2,0.3-1.5c0.5-0.3,1.2-0.2,1.5,0.3
						c20.9,29.5,50.6,39,71.4,38c16.4-0.8,29.6-7.8,36.3-19.3c6.2-10.7,4.6-26.4-10.6-35.5c-9.2-5.6-23.7-4.2-30.4,6.6
						c-2.9,4.6-3.4,10.4-1.4,15c1.7,4,5.2,6.8,9.8,7.7c6.1,0.9,9.5-2.1,10.9-3.9c2.1-2.6,2.8-6.1,1.8-8.9c-1.3-3.4-4.5-4.5-7.2-4.1
						c-2.3,0.3-4.8,1.9-5,5.3c0,0.6-0.6,1-1.2,1c-0.6,0-1-0.6-1-1.2c0.3-3.8,3-6.7,6.9-7.2c3.4-0.5,7.8,1,9.5,5.5
						c1.3,3.5,0.5,7.8-2.1,11c-3,3.7-7.7,5.4-13,4.7c-5.4-1.1-9.4-4.3-11.5-9c-2.3-5.3-1.7-11.8,1.6-17c7.4-11.9,23.2-13.4,33.3-7.3
						c16.4,9.9,18.1,26.8,11.3,38.5c-7,12.2-20.9,19.6-38,20.4C257.1,105.6,256.1,105.6,255.1,105.6L255.1,105.6z"/>
				</g>
				<g>
					<path class="st0" d="M323,137.8c-1.9,0-3.8-0.4-5.5-1.1c-7.9-3.5-9.9-9.2-9.2-13.5c0.9-5,4.4-6.9,7.1-7c3.3-0.1,6.2,2,7,5.1
						c0.1,0.6-0.2,1.2-0.8,1.3c-0.6,0.1-1.2-0.2-1.3-0.8c-0.6-2.5-2.9-3.6-4.8-3.5c-2,0.1-4.5,1.5-5.1,5.2
						c-0.8,4.5,2.2,8.6,7.9,11.1c4.7,2.1,10.6,0.7,14.5-3.4c4.1-4.2,4.9-10,2.2-15.5c-2.8-5.6-9.1-9.3-17-9.8l-63.8-0.3
						c-0.6,0-1.1-0.5-1.1-1.1c0-0.6,0.5-1.1,1.1-1.1l0,0l63.8,0.3c8.7,0.5,15.7,4.7,18.8,11c3.1,6.3,2.1,13-2.6,17.9
						C331.3,136,327.1,137.8,323,137.8L323,137.8z"/>
				</g>
				<g>
					<path class="st0" d="M299.6,100.1L299.6,100.1c-2.5,0-4.9-0.4-7.2-1.1c-0.3-0.1-0.6-0.4-0.7-0.7c-0.1-0.3,0-0.7,0.2-1
						c2.9-3.8,7-6.5,11.8-8c4.7-1.4,9.8-1.4,14.3,0.1c0.3,0.1,0.6,0.4,0.7,0.7c0.1,0.3,0,0.7-0.2,1c-3,3.8-7,6.6-11.8,8
						C304.3,99.7,302,100.1,299.6,100.1L299.6,100.1z M294.6,97.4c3.7,0.9,7.7,0.8,11.4-0.4c3.8-1.2,7.1-3.2,9.7-6
						c-3.7-0.9-7.7-0.8-11.4,0.4C300.5,92.5,297.2,94.6,294.6,97.4L294.6,97.4z"/>
				</g>
				<g>
					<path class="st0" d="M185.7,67.1c-0.3,0-0.6-0.1-0.8-0.3c-0.4-0.4-0.4-1.1,0.1-1.5c12.5-11.6,31-34.4,14.1-57.3
						c-0.4-0.5-0.3-1.2,0.2-1.5c0.5-0.4,1.2-0.2,1.5,0.2c18.6,25.2-3.9,50.5-14.4,60.2C186.3,67,186,67.1,185.7,67.1L185.7,67.1z"/>
				</g>
			</g>
			<g>
				<g>
					<path class="st0" d="M171.3,86.3c-1.1,0-2.1-0.1-3-0.4c-2.4-0.7-4.3-2.2-5.4-4.4c-1.4-2.6-1.4-5.3,0-7.4
						c1.4-2.1,3.8-3.4,6.3-3.2c2.2,0.1,4,1.3,5,3.3c0.3,0.5,0,1.2-0.5,1.4c-0.5,0.3-1.2,0.1-1.4-0.5c-0.6-1.3-1.8-2-3.2-2.1
						c-1.7-0.1-3.4,0.8-4.4,2.3c-0.7,1-1.2,2.8,0.1,5.2c0.9,1.7,2.3,2.8,4.1,3.3c3.4,0.9,8.1-0.2,12.8-3.2
						c14.5-8.9,31.5-31.5,37.8-46.1c0.2-0.5,0.9-0.8,1.4-0.6c0.5,0.2,0.8,0.9,0.6,1.4c-6.5,15.2-23.6,37.8-38.6,47.1
						C178.8,85,174.8,86.3,171.3,86.3L171.3,86.3z"/>
				</g>
				<g>
					<path class="st0" d="M144.7,105.6c-1,0-2,0-2.9-0.1c-17.1-0.8-31-8.2-38-20.4c-6.8-11.7-5-28.6,11.3-38.5
						c10.1-6.1,25.9-4.6,33.4,7.3c3.2,5.2,3.8,11.7,1.6,17c-2,4.7-6.1,7.9-11.4,9c-5.3,0.8-10.1-1-13.1-4.7c-2.6-3.2-3.4-7.5-2.1-11
						c1.7-4.5,6.1-6,9.5-5.5c3.9,0.6,6.6,3.4,6.9,7.2c0,0.6-0.4,1.1-1,1.2c-0.6,0-1.1-0.4-1.1-1c-0.2-3.4-2.8-4.9-5.1-5.3
						c-2.7-0.4-5.9,0.7-7.2,4.1c-1,2.8-0.3,6.2,1.8,8.9c1.5,1.8,4.8,4.7,11,3.9c4.6-0.9,8.1-3.7,9.8-7.7c2-4.6,1.4-10.4-1.4-15
						c-6.8-10.8-21.2-12.2-30.4-6.6c-15.2,9.1-16.8,24.8-10.6,35.5c6.7,11.5,19.9,18.6,36.3,19.3c20.8,1,50.5-8.5,71.4-38
						c0.3-0.5,1-0.6,1.5-0.3c0.5,0.3,0.6,1,0.3,1.5C194.6,95.5,165.9,105.6,144.7,105.6L144.7,105.6z"/>
				</g>
				<g>
					<path class="st0" d="M76.9,137.8c-4.1,0-8.3-1.8-11.4-5c-4.7-4.9-5.7-11.6-2.6-17.9c3.1-6.4,10.1-10.5,18.8-11l63.9-0.3h0
						c0.6,0,1.1,0.5,1.1,1.1c0,0.6-0.5,1.1-1.1,1.1L81.7,106c-7.8,0.5-14.1,4.2-16.9,9.8c-2.7,5.4-1.8,11.2,2.2,15.5
						c4,4.1,9.8,5.5,14.5,3.4c5.7-2.5,8.7-6.7,7.9-11.1c-0.6-3.7-3.1-5.1-5.1-5.2c-1.9-0.1-4.2,1-4.8,3.5c-0.1,0.6-0.7,0.9-1.3,0.8
						c-0.6-0.1-0.9-0.7-0.8-1.3c0.8-3.1,3.7-5.2,7-5.1c2.8,0.1,6.3,2,7.1,7c0.7,4.2-1.3,10-9.2,13.5
						C80.6,137.4,78.7,137.8,76.9,137.8L76.9,137.8z"/>
				</g>
				<g>
					<path class="st0" d="M100.3,100.1c-2.4,0-4.8-0.4-7.1-1.1c-4.8-1.4-8.9-4.2-11.8-8c-0.2-0.3-0.3-0.6-0.2-1
						c0.1-0.3,0.4-0.6,0.7-0.7c4.5-1.5,9.6-1.5,14.3-0.1c4.8,1.5,8.9,4.2,11.8,8c0.2,0.3,0.3,0.6,0.2,1c-0.1,0.3-0.4,0.6-0.7,0.7
						C105.2,99.7,102.8,100.1,100.3,100.1L100.3,100.1z M84.1,91c2.6,2.8,5.9,4.9,9.7,6c3.8,1.1,7.8,1.3,11.4,0.4
						c-2.6-2.8-5.9-4.9-9.7-6C91.8,90.2,87.8,90.1,84.1,91L84.1,91z"/>
				</g>
				<g>
					<path class="st0" d="M214.1,67.1c-0.3,0-0.5-0.1-0.7-0.3c-10.5-9.7-32.9-35-14.4-60.2c0.4-0.5,1-0.6,1.5-0.2
						c0.5,0.4,0.6,1,0.2,1.5c-16.9,22.9,1.6,45.7,14.1,57.3c0.4,0.4,0.5,1.1,0.1,1.5C214.7,67,214.4,67.1,214.1,67.1L214.1,67.1z"/>
				</g>
			</g>
		</g>
		<g>
			<g>
				<g>
					<path class="st0" d="M52.5,333.9c-0.2,0-0.5-0.1-0.6-0.2c-0.5-0.4-0.6-1-0.2-1.5c9.6-12.7,20.6-38.7,21.1-55.7
						c0.2-5.6-1.2-10.2-3.7-12.7c-1.4-1.3-3-2-4.9-1.9c-2.8,0.1-4,1.4-4.6,2.6c-0.8,1.5-0.7,3.5,0.2,4.9c0.8,1.2,2,1.8,3.4,1.7
						c0.6,0,1.1,0.4,1.1,1c0,0.6-0.4,1.1-1,1.1c-2.2,0.1-4.2-0.8-5.3-2.6c-1.4-2.1-1.5-4.9-0.3-7.1c1.2-2.3,3.4-3.6,6.4-3.7
						c2.5-0.1,4.7,0.8,6.5,2.5c2.9,2.9,4.5,8.1,4.3,14.3c-0.5,17.7-11.5,43.7-21.5,57C53.2,333.7,52.8,333.9,52.5,333.9L52.5,333.9z
						"/>
				</g>
				<g>
					<path class="st0" d="M76.3,312.9c-0.1,0-0.3,0-0.4-0.1c-0.5-0.2-0.8-0.9-0.5-1.4c15.1-32.9,8.4-63.3-2.8-80.8
						c-8.8-13.8-21.6-21.7-34.9-21.8c0,0,0,0,0,0c-12.4,0-25.1,9.2-25.4,26.9c-0.2,10.8,8.2,22.6,20.9,23c5.4,0.2,10.7-2.2,13.7-6.3
						c2.6-3.5,3.2-7.9,1.8-12.4c-2.3-5.7-6.5-7.2-8.8-7.5c-3.3-0.5-6.7,0.6-8.6,2.9c-2.3,2.8-1.7,6.2,0,8.3c1.4,1.8,4,3.2,7.1,1.7
						c0.5-0.3,1.2,0,1.4,0.5c0.3,0.5,0,1.2-0.5,1.4c-3.5,1.7-7.3,0.8-9.7-2.3c-2.1-2.7-3-7.3,0-11c2.3-2.8,6.5-4.3,10.5-3.6
						c4.7,0.7,8.5,4,10.5,8.9c1.7,5.2,1,10.3-2,14.4c-3.4,4.6-9.4,7.3-15.5,7.1c-14-0.5-23.2-13.4-23-25.2
						c0.4-19.1,14.2-29.1,27.6-29.1c14.1,0,27.4,8.3,36.7,22.8c11.5,18,18.4,49.2,2.9,82.9C77.1,312.6,76.7,312.9,76.3,312.9
						L76.3,312.9z"/>
				</g>
				<g>
					<path class="st0" d="M75.4,234.1c-0.4,0-0.7-0.2-0.9-0.5l-31.7-55.4c-3.9-7.8-3.8-15.9,0.1-21.8c3.9-5.8,10.2-8.3,16.8-6.7
						c6.4,1.6,11.2,6.7,11.8,12.7c0.9,8.6-3,13.2-7.1,14.7c-4.7,1.7-8.1-0.4-9.6-2.7c-1.8-2.8-1.4-6.3,0.9-8.6
						c0.4-0.4,1.1-0.4,1.5,0c0.4,0.4,0.4,1.1,0,1.5c-1.8,1.8-1.6,4.3-0.6,5.9c1.1,1.7,3.5,3.1,7,1.8c4.2-1.6,6.4-6.2,5.7-12.4
						c-0.6-5.1-4.7-9.5-10.2-10.9c-5.7-1.4-11.1,0.8-14.5,5.8c-3.5,5.2-3.5,12.6,0,19.6l31.7,55.4c0.3,0.5,0.1,1.2-0.4,1.5
						C75.8,234.1,75.6,234.1,75.4,234.1L75.4,234.1z"/>
				</g>
				<g>
					<path class="st0" d="M50.4,204.3c0,0-0.1,0-0.1,0c-4.7-0.7-9.2-2.8-12.9-6.3c-3.7-3.4-6.1-7.7-7.1-12.4c-0.1-0.3,0-0.7,0.3-1
						c0.2-0.3,0.6-0.4,0.9-0.3c4.8,0.7,9.2,2.8,12.8,6.3c3.7,3.4,6.1,7.7,7.1,12.4c0.1,0.3,0,0.7-0.3,1
						C51,204.1,50.7,204.3,50.4,204.3L50.4,204.3z M32.9,186.7c1.1,3.6,3.2,7,6,9.7c2.9,2.7,6.4,4.6,10.1,5.4c-1.1-3.7-3.1-7-6-9.7
						C40,189.4,36.6,187.5,32.9,186.7L32.9,186.7z"/>
				</g>
				<g>
					<path class="st0" d="M18.2,329.9c-0.1,0-0.3,0-0.4-0.1c-0.5-0.2-0.8-0.9-0.6-1.4c12.5-28.7,45.6-21.9,59.3-17.6
						c0.6,0.2,0.9,0.8,0.7,1.3c-0.2,0.6-0.8,0.9-1.4,0.7c-16.3-5.1-45.3-9.6-56.7,16.5C19.1,329.7,18.7,329.9,18.2,329.9L18.2,329.9
						z"/>
				</g>
			</g>
			<g>
				<g>
					<path class="st0" d="M95,327.5c-0.1,0-0.2,0-0.3,0c-2.5-0.1-4.8-1.6-6-3.8c-1-1.9-0.8-4.1,0.4-6c0.3-0.5,1-0.6,1.5-0.3
						c0.5,0.3,0.6,1,0.3,1.5c-0.8,1.2-0.9,2.6-0.3,3.8c0.8,1.5,2.4,2.6,4.1,2.7c1.2,0.1,3-0.4,4.5-2.7c1-1.6,1.3-3.3,0.8-5.2
						c-0.9-3.4-4.2-6.9-9.2-9.5c-15-8.1-43-11.6-58.8-9.6c-0.6,0.1-1.1-0.4-1.2-0.9c-0.1-0.6,0.4-1.1,0.9-1.2
						c16.5-2,44.5,1.5,60.1,9.9c5.5,2.9,9.2,6.9,10.2,10.9c0.6,2.4,0.3,4.8-1.1,6.9C99.6,326.2,97.5,327.5,95,327.5L95,327.5z"/>
				</g>
				<g>
					<path class="st0" d="M110.4,386.9c-4.9,0-10.1-1.3-15.5-4.3c-10.3-5.7-17-20.2-10.3-32.5c2.9-5.4,8.2-9.2,13.9-9.9
						c5.1-0.6,9.9,1.3,13.5,5.4c3.3,4.3,4.2,9.2,2.5,13.6c-1.5,3.8-4.8,6.7-8.4,7.3c-4.7,0.8-8.2-2.3-9.5-5.5
						c-1.5-3.7-0.4-7.4,2.8-9.6c0.5-0.3,1.2-0.2,1.5,0.3c0.3,0.5,0.2,1.2-0.3,1.5c-2.8,1.9-2.9,4.9-2,7c1,2.5,3.6,4.7,7.2,4.1
						c2.9-0.5,5.6-2.8,6.8-6c0.8-2.2,1.7-6.6-2.1-11.5c-3.1-3.5-7.2-5.1-11.6-4.6c-5,0.6-9.7,3.9-12.3,8.7c-6,11.3,0,24.4,9.5,29.6
						c15.5,8.6,29.9,2.2,36.1-8.6c6.6-11.5,6.1-26.5-1.4-41.1C121,312.6,98,291.6,62,288.2c-0.6-0.1-1-0.6-1-1.2
						c0.1-0.6,0.6-1,1.2-1c36.9,3.5,60.5,25,70.3,44c7.9,15.2,8.4,31,1.4,43.2C129.3,381.1,120.7,386.9,110.4,386.9L110.4,386.9z"/>
				</g>
				<g>
					<path class="st0" d="M178.9,393.8c-6.7,0-13.3-4-17.8-10.8l-32.2-55.2c-0.3-0.5-0.1-1.2,0.4-1.5c0.5-0.3,1.2-0.1,1.5,0.4
						l32.2,55.2c4.3,6.5,10.7,10.2,17,9.7c6.1-0.4,10.6-4,12.3-9.7c1.6-5.5-0.1-11.2-4.3-14.3c-5-3.7-10.1-4.2-13.6-1.3
						c-2.9,2.4-2.9,5.2-1.9,7c0.9,1.7,2.9,3.1,5.4,2.4c0.6-0.2,1.2,0.2,1.3,0.7c0.2,0.6-0.2,1.2-0.7,1.3c-3.1,0.9-6.4-0.6-7.9-3.5
						c-1.3-2.4-1.4-6.4,2.5-9.7c3.3-2.8,9.3-3.9,16.3,1.2c4.9,3.6,7,10.3,5.1,16.6c-1.9,6.5-7.2,10.7-14.2,11.2
						C179.6,393.8,179.3,393.8,178.9,393.8L178.9,393.8z"/>
				</g>
				<g>
					<path class="st0" d="M149.1,390.3c-0.3,0-0.5-0.1-0.7-0.3c-3.6-3.2-6.1-7.5-7.2-12.3c-1.1-4.9-0.8-9.8,1-14.3
						c0.1-0.3,0.4-0.6,0.8-0.6c0.3-0.1,0.7,0,1,0.2c3.6,3.2,6.1,7.5,7.2,12.3c1.1,4.9,0.8,9.8-1,14.3c-0.1,0.3-0.4,0.6-0.8,0.6
						C149.3,390.3,149.2,390.3,149.1,390.3L149.1,390.3z M143.6,365.8c-1.1,3.6-1.3,7.5-0.4,11.4c0.9,3.9,2.8,7.3,5.4,10.1
						c1.1-3.6,1.3-7.5,0.4-11.4C148.1,372,146.3,368.5,143.6,365.8L143.6,365.8z"/>
				</g>
				<g>
					<path class="st0" d="M22.8,330.2c-1.5,0-3-0.1-4.6-0.3c-0.6-0.1-1-0.6-1-1.2c0.1-0.6,0.6-1,1.2-1C46.7,331,57.2,303.6,61,287
						c0.1-0.6,0.7-0.9,1.3-0.8c0.6,0.1,0.9,0.7,0.8,1.3C60.1,300.7,50.3,330.2,22.8,330.2L22.8,330.2z"/>
				</g>
			</g>
		</g>
		<g>
			<g>
				<g>
					<path class="st0" d="M347.5,333.9c-0.3,0-0.6-0.1-0.9-0.4c-10-13.2-21-39.3-21.5-57c-0.2-6.2,1.4-11.4,4.3-14.3
						c1.8-1.7,4-2.6,6.5-2.5c3,0.1,5.2,1.4,6.4,3.7c1.1,2.2,1,5-0.3,7.1c-1.2,1.8-3.1,2.8-5.3,2.6c-0.6,0-1-0.5-1-1.1
						c0-0.6,0.6-1,1.1-1c1.4,0.1,2.7-0.5,3.4-1.7c0.9-1.4,1-3.4,0.2-4.9c-0.6-1.1-1.8-2.4-4.6-2.6c-1.9-0.1-3.5,0.6-4.9,1.9
						c-2.5,2.5-3.8,7.1-3.7,12.7c0.5,17,11.5,43,21.1,55.7c0.4,0.5,0.3,1.2-0.2,1.5C347.9,333.8,347.7,333.9,347.5,333.9
						L347.5,333.9z"/>
				</g>
				<g>
					<path class="st0" d="M323.7,312.9c-0.4,0-0.8-0.2-1-0.6c-15.4-33.7-8.6-64.9,2.9-82.9c9.2-14.4,22.6-22.7,36.7-22.8
						c0,0,0,0,0,0c13.5,0,27.2,10,27.6,29.1c0.2,11.8-9,24.8-23,25.2c-6.1,0.2-12.1-2.5-15.5-7.1c-3.1-4.1-3.8-9.2-2.1-14.4
						c2-5,5.9-8.3,10.6-9c4.1-0.6,8.2,0.8,10.5,3.6c3,3.7,2.1,8.3,0,11c-2.4,3.1-6.3,4-9.7,2.3c-0.5-0.3-0.8-0.9-0.5-1.4
						c0.3-0.5,0.9-0.8,1.4-0.5c3,1.5,5.7,0.1,7.1-1.7c1.7-2.1,2.3-5.5,0-8.3c-1.9-2.3-5.2-3.4-8.6-2.9c-2.3,0.4-6.5,1.8-8.9,7.6
						c-1.5,4.4-0.8,8.8,1.8,12.3c3,4,8.3,6.4,13.7,6.3c12.8-0.4,21.1-12.3,20.9-23c-0.3-17.7-13-26.9-25.4-26.9c0,0,0,0,0,0
						c-13.3,0-26,7.9-34.9,21.8c-11.2,17.5-17.8,48-2.8,80.8c0.2,0.5,0,1.2-0.5,1.4C324,312.8,323.9,312.9,323.7,312.9L323.7,312.9z
						"/>
				</g>
				<g>
					<path class="st0" d="M324.6,234.1c-0.2,0-0.4,0-0.5-0.1c-0.5-0.3-0.7-1-0.4-1.5l31.7-55.4c3.5-7,3.5-14.3,0-19.6
						c-3.4-5-8.8-7.2-14.5-5.8c-5.5,1.4-9.6,5.7-10.2,10.9c-0.7,6.2,1.4,10.9,5.7,12.4c3.5,1.3,6-0.1,7-1.8c1-1.6,1.2-4.1-0.6-5.9
						c-0.4-0.4-0.4-1.1,0-1.5c0.4-0.4,1.1-0.4,1.5,0c2.3,2.3,2.7,5.8,0.9,8.6c-1.5,2.3-4.9,4.4-9.6,2.7c-4-1.5-8-6.1-7.1-14.7
						c0.7-6,5.4-11.2,11.8-12.7c6.6-1.6,12.9,0.9,16.8,6.7c3.9,5.9,4,14,0.1,21.8l-31.7,55.5C325.3,233.9,324.9,234.1,324.6,234.1
						L324.6,234.1z"/>
				</g>
				<g>
					<path class="st0" d="M349.6,204.3c-0.3,0-0.6-0.1-0.8-0.3c-0.2-0.3-0.3-0.6-0.3-1c1-4.7,3.4-9,7.1-12.4
						c3.6-3.4,8.1-5.6,12.8-6.3c0.3,0,0.7,0.1,0.9,0.3c0.2,0.3,0.3,0.6,0.3,1c-1,4.7-3.4,9-7.1,12.4c-3.7,3.4-8.1,5.6-12.9,6.3
						C349.7,204.3,349.6,204.3,349.6,204.3L349.6,204.3z M367.1,186.7c-3.7,0.8-7.2,2.7-10.1,5.4c-2.9,2.7-5,6.1-6.1,9.7
						c3.7-0.8,7.2-2.7,10.1-5.4C364,193.7,366.1,190.3,367.1,186.7L367.1,186.7z"/>
				</g>
				<g>
					<path class="st0" d="M381.8,329.9c-0.4,0-0.8-0.2-1-0.6c-11.4-26.1-40.4-21.5-56.7-16.5c-0.6,0.2-1.2-0.1-1.3-0.7
						c-0.2-0.6,0.1-1.2,0.7-1.3c13.7-4.2,46.8-11,59.3,17.6c0.2,0.5,0,1.2-0.6,1.4C382,329.9,381.9,329.9,381.8,329.9L381.8,329.9z"
						/>
				</g>
			</g>
			<g>
				<g>
					<path class="st0" d="M305,327.5c-2.4,0-4.6-1.3-6.1-3.7c-1.3-2.1-1.7-4.5-1.1-6.9c1-4,4.8-7.9,10.2-10.9
						c15.6-8.4,43.6-11.9,60.1-9.9c0.6,0.1,1,0.6,0.9,1.2c-0.1,0.6-0.6,1-1.2,0.9c-15.8-1.9-43.8,1.6-58.8,9.6
						c-4.9,2.7-8.3,6.1-9.2,9.5c-0.5,1.8-0.2,3.6,0.8,5.2c1.5,2.3,3.3,2.8,4.5,2.7c1.7-0.1,3.4-1.1,4.1-2.7c0.6-1.2,0.5-2.6-0.3-3.8
						c-0.3-0.5-0.2-1.2,0.3-1.5c0.5-0.3,1.2-0.2,1.5,0.3c1.2,1.9,1.4,4,0.4,6c-1.1,2.2-3.5,3.7-6,3.8
						C305.2,327.5,305.1,327.5,305,327.5L305,327.5z"/>
				</g>
				<g>
					<path class="st0" d="M289.6,386.9c-10.3,0-18.9-5.8-23.5-13.7c-7-12.2-6.5-27.9,1.4-43.1c9.8-19,33.5-40.5,70.3-44
						c0.6-0.1,1.1,0.4,1.2,1c0.1,0.6-0.4,1.1-1,1.2c-36,3.4-59,24.3-68.6,42.8c-7.5,14.6-8,29.5-1.4,41.1
						c6.2,10.8,20.6,17.2,36.1,8.6c9.4-5.2,15.5-18.4,9.5-29.6c-2.6-4.8-7.3-8.2-12.3-8.7c-4.4-0.5-8.5,1.1-11.6,4.7
						c-3.8,4.9-2.9,9.2-2.1,11.4c1.2,3.1,3.9,5.5,6.8,6c3.6,0.6,6.2-1.6,7.2-4.1c0.9-2.1,0.8-5.1-2-7c-0.5-0.3-0.6-1-0.3-1.5
						c0.3-0.5,1-0.6,1.5-0.3c3.2,2.2,4.3,5.9,2.8,9.6c-1.3,3.2-4.8,6.3-9.5,5.5c-3.6-0.6-6.9-3.5-8.4-7.3c-1.7-4.4-0.8-9.4,2.5-13.6
						c3.6-4.1,8.4-6,13.5-5.4c5.7,0.7,11,4.5,13.9,9.9c6.6,12.4,0,26.8-10.3,32.5C299.8,385.6,294.5,386.9,289.6,386.9L289.6,386.9z
						"/>
				</g>
				<g>
					<path class="st0" d="M221.1,393.8c-0.4,0-0.7,0-1.1,0c-7-0.5-12.3-4.7-14.2-11.2c-1.8-6.3,0.2-13,5.1-16.6
						c6.9-5.1,13-4,16.3-1.2c3.9,3.2,3.7,7.2,2.5,9.7c-1.5,2.9-4.8,4.4-7.9,3.5c-0.6-0.2-0.9-0.8-0.8-1.3c0.2-0.6,0.8-0.9,1.3-0.7
						c2.5,0.7,4.5-0.7,5.4-2.4c1-1.8,1-4.6-1.9-7c-3.5-2.9-8.6-2.4-13.6,1.3c-4.2,3.1-5.9,8.8-4.3,14.3c1.6,5.6,6.2,9.2,12.3,9.7
						c6.3,0.4,12.6-3.2,17-9.8l32.1-55.1c0.3-0.5,1-0.7,1.5-0.4c0.5,0.3,0.7,1,0.4,1.5L238.9,383
						C234.4,389.9,227.8,393.8,221.1,393.8L221.1,393.8z"/>
				</g>
				<g>
					<path class="st0" d="M250.9,390.3c-0.1,0-0.2,0-0.3,0c-0.3-0.1-0.6-0.3-0.7-0.6c-1.8-4.4-2.1-9.4-1-14.3
						c1.1-4.9,3.6-9.1,7.2-12.3c0.3-0.2,0.6-0.3,1-0.2c0.3,0.1,0.6,0.3,0.8,0.6c1.8,4.4,2.1,9.4,1,14.3c-1.1,4.9-3.6,9.1-7.2,12.3
						C251.4,390.2,251.2,390.3,250.9,390.3L250.9,390.3z M256.4,365.8c-2.6,2.7-4.5,6.2-5.4,10.1c-0.9,3.9-0.8,7.8,0.4,11.4
						c2.6-2.7,4.5-6.2,5.4-10.1C257.6,373.3,257.5,369.4,256.4,365.8L256.4,365.8z"/>
				</g>
				<g>
					<path class="st0" d="M377.2,330.2c-27.5,0-37.3-29.6-40.3-42.8c-0.1-0.6,0.2-1.2,0.8-1.3c0.6-0.1,1.2,0.2,1.3,0.8
						c3.8,16.6,14.3,44.1,42.6,40.9c0.6-0.1,1.1,0.4,1.2,1c0.1,0.6-0.4,1.1-1,1.2C380.3,330.1,378.7,330.2,377.2,330.2L377.2,330.2z
						"/>
				</g>
			</g>
		</g>
	</g>
	<g>
		<path class="st0" d="M97.7,290c-3.7,0-6.8-3-6.8-6.8c0-3.7,3-6.8,6.8-6.8c3.7,0,6.8,3,6.8,6.8C104.4,286.9,101.4,290,97.7,290
			L97.7,290z M97.7,278.6c-2.5,0-4.6,2.1-4.6,4.6c0,2.6,2.1,4.6,4.6,4.6c2.6,0,4.6-2.1,4.6-4.6C102.3,280.6,100.2,278.6,97.7,278.6
			L97.7,278.6z"/>
	</g>
	<g>
		<path class="st0" d="M200,105.6c-3.7,0-6.8-3-6.8-6.8c0-3.7,3-6.8,6.8-6.8c3.7,0,6.8,3,6.8,6.8C206.8,102.5,203.8,105.6,200,105.6
			L200,105.6z M200,94.1c-2.6,0-4.6,2.1-4.6,4.6c0,2.6,2.1,4.6,4.6,4.6c2.6,0,4.6-2.1,4.6-4.6C204.6,96.2,202.6,94.1,200,94.1
			L200,94.1z"/>
	</g>
	<g>
		<path class="st0" d="M301.9,289.5c-3.7,0-6.8-3-6.8-6.8c0-3.7,3-6.8,6.8-6.8c3.7,0,6.8,3,6.8,6.8
			C308.7,286.5,305.7,289.5,301.9,289.5L301.9,289.5z M301.9,278.1c-2.5,0-4.6,2.1-4.6,4.6c0,2.6,2.1,4.6,4.6,4.6
			c2.6,0,4.6-2.1,4.6-4.6C306.5,280.2,304.5,278.1,301.9,278.1L301.9,278.1z"/>
	</g>
</g>
<g>
	<path class="st0" d="M275,271.3l-0.9-0.3c-23.5-8.5-48.4-12.8-74.1-12.8c-25.7,0-50.6,4.3-74.1,12.8l-0.9,0.3l-23.7-41.1l1.3-0.5
		c30.8-11.6,63.6-17.5,97.4-17.5c33.8,0,66.6,5.9,97.4,17.5l1.3,0.5L275,271.3L275,271.3z M104.7,231.5l21.3,36.9
		c23.5-8.4,48.4-12.7,74-12.7c25.6,0,50.5,4.3,74,12.7l21.3-36.9c-30.2-11.2-62.2-16.9-95.3-16.9
		C166.9,214.6,134.9,220.3,104.7,231.5L104.7,231.5z"/>
</g>
<g>
	<path class="st0" d="M228.5,157.4c-2.1-0.2-4,1-4.1,2.8c-0.1,1.2,0.5,2.2,1.5,2.9c-5.6,5.4-8.2,8.2-13.2,13.9
		c-3.5-8.2-7.4-16.3-11.6-24.2c1.6-0.4,2.7-1.6,2.7-3.1c0-1.8-1.7-3.3-3.9-3.3c-2.2,0-4,1.5-3.9,3.3c0,1.4,1.2,2.6,2.7,3.1
		c-4.2,7.9-8.1,16-11.6,24.2c-5-5.7-7.6-8.5-13.1-13.9c1-0.7,1.7-1.8,1.6-3c-0.2-1.8-2-3.1-4.1-2.8c-2.1,0.2-3.6,1.9-3.4,3.7
		c0.2,1.8,2.1,3,4.1,2.8c0.1,0,0.1,0,0.2,0c2.3,8.5,4.5,17.1,6.6,25.7c1.3-0.1,2-0.2,3.3-0.3c5.7-0.4,8.6-0.6,14.3-0.7
		c2.7,0,4,0,6.6,0c5.7,0.1,8.6,0.2,14.3,0.7c1.3,0.1,2,0.2,3.3,0.3c2.1-8.6,4.3-17.2,6.6-25.7c0.1,0,0.2,0,0.3,0
		c2.1,0.2,3.9-1,4.1-2.8C232.2,159.3,230.6,157.6,228.5,157.4z M180.2,197c13.3-0.9,26.3-0.9,39.6,0c0.2-2,0.3-2.9,0.5-4.9
		c-13.6-1-26.9-1-40.5,0C179.9,194,180,195,180.2,197z"/>
</g>
<g>
	<path class="st0" d="M154,253.3l-8.4,1.6l-0.2-1.1l1.4-1.5l-4.2-22.3l-1.6-0.8l-0.2-1.1c3-0.5,5.1-1,8.1-1.5
		c3.4-0.7,6.2-0.2,6.9,3.8l0.7,3.9c0.3,1.7,0,3.3-1.7,4c2.2,0.1,3.6,1.5,4.1,3.9l0.9,4.5C160.5,251.1,157.6,252.7,154,253.3
		C154,253.3,154,253.3,154,253.3z M151.7,231.1c-0.3-1.5-1.1-2.4-2.6-2.1l-2.7,0.5l1.8,9.3l2.6-0.5c1.8-0.3,1.9-1.9,1.6-3.3
		L151.7,231.1z M154.8,242.9c-0.4-2.2-1.4-3.1-3.6-2.7l-2.5,0.5l1.8,9.3c0.1,0.7,0,1.1-0.6,1.4l0,0.2l3.7-0.7
		c2.1-0.4,2.5-1.5,2.1-3.6L154.8,242.9z"/>
	<path class="st0" d="M176.6,241.6c-0.9-2-1.5-2.5-3.6-2.3c0.2,2.4,0.6,6.3,0.8,8.8l1.7,1.1l0.1,1.2c-2.2,0.2-5,0.5-7.1,0.7
		l-0.1-1.2l1.5-1.4c-0.7-7.5-1.4-15.1-2.1-22.6l-1.4-1l-0.1-1.2l7.6-0.7c4-0.4,7.5,0.9,8,5.7c0.1,1.1,0.2,2.4,0.3,3.5
		c0.3,3.3-1.3,5.3-3.6,6.1c1.2,0.5,1.7,1.2,2.2,2.4c0.7,1.6,1.5,3.2,2.2,4.8c0.5,1,1.2,2.4,2.4,2l0.1,1.6c-0.8,0.5-1.9,0.7-2.7,0.8
		c-2.4,0.3-2.8-1.5-3.8-3.5L176.6,241.6z M171.7,225.7c0.4,4.2,0.6,7,1,11.2l2.3-0.2c2.5-0.2,3.2-1.7,3-4.2
		c-0.1-1.2-0.2-2.4-0.3-3.5c-0.2-2.4-1.1-3.8-3.7-3.5L171.7,225.7z"/>
	<path class="st0" d="M195.4,241.9l-1.1,5.3l1.4,0.7l0,1.3l-5.3,0.1l0-1.3l1.3-0.8c1.7-8,3.7-17.5,5.5-25.5l4,0l6.3,25.2l1.3,0.9
		l0,1.3l-6.8,0.1l0-1l1.3-0.9l-1.3-5.4L195.4,241.9z M198.6,226.7c-0.8,3.4-1.8,8.3-2.7,12.9l5.7-0.1L198.6,226.7L198.6,226.7z"/>
	<path class="st0" d="M219.3,247.5l1.4,1.2l-0.1,1.3l-5.9-0.5l0.1-1.2l1.6-0.9l2-22.6l-1.2-1.2l0.1-1.2l4.9,0.4
		c1.2,0.2,1.7,0.5,1.9,1.9l2.5,12.3l0.9,7.5l0.1,0c0.2-1.9,0.3-4.4,0.4-6.2l1.1-12.5l-1.3-1.2l0.1-1.3l5.5,0.5l-0.1,1.3l-1.5,1
		l-2.2,24.9l-3.4-0.3c-1-0.1-1.4-0.7-1.5-1.5l-4-22c0,0-0.1,0-0.1,0l0.1,3.7L219.3,247.5z"/>
	<path class="st0" d="M255.1,247.8c-0.9,4.8-4.4,6.5-8.7,5.7c-2.7-0.5-5.4-1-8.1-1.5l0.2-1.1l1.8-0.9c1.4-7.4,2.8-14.8,4.2-22.1
		l-1.1-1.5l0.2-1.1l7.9,1.5c3.9,0.7,7,3.4,6.1,8.4L255.1,247.8z M248.6,228.6c-0.8,4-3.1,16.4-3.9,20.4c-0.1,0.7-0.4,1-1.1,1l0,0.3
		c1.1,0.2,2.2,0.4,3.3,0.6c2.7,0.5,3.8-1.4,4.2-3.9c0.3-1.6,2.1-11.2,2.4-12.9c0.5-2.4,0.2-4.6-2.5-5.1L248.6,228.6z"/>
</g>
<g>
	<path class="st0" d="M176.6,293.4l1,0.7v0.8h-3.8V294l1-0.7v-14.1l-0.9-0.7v-0.7h3.2c0.8,0,1.1,0.2,1.3,1.1l2.3,7.5l1,4.6h0.1
		c0-1.2-0.1-2.7-0.1-3.9v-7.8l-0.9-0.7v-0.8h3.6v0.8l-0.9,0.7v15.6h-2.2c-0.6,0-0.9-0.4-1.1-0.9l-3.8-13.4c0,0-0.1,0-0.1,0l0.3,2.3
		V293.4z"/>
	<path class="st0" d="M189.1,290.3l-0.8,3.3l0.9,0.5v0.8h-3.4V294l0.9-0.5c1.2-5,2.5-10.9,3.8-15.8h2.6l3.9,15.7l0.9,0.6v0.8h-4.4
		v-0.6l0.8-0.6l-0.8-3.3H189.1z M191.2,280.8c-0.5,2.1-1.2,5.2-1.8,8h3.7L191.2,280.8L191.2,280.8z"/>
	<path class="st0" d="M201.8,293.4l1,0.7v0.8H199V294l1-0.7v-14.1l-0.9-0.7v-0.7h3.5c1.2,0,1.6,0.1,1.8,1.2
		c0.9,4.8,1.3,7.9,1.8,12.6h0l2-12.7c0.2-0.9,0.5-1.1,1.5-1.1h3.7v0.7l-0.9,0.7v14.1l1,0.8v0.7H209v-0.7l1-0.8c0-11.4,0-11.3,0-11.3
		v-2.5h-0.1l-2.6,15.1h-2.1c-0.5,0-0.8-0.2-0.9-0.7c-0.8-4.8-1.5-9.4-2.3-14.2h-0.4l0.1,3.1V293.4z"/>
	<path class="st0" d="M216.1,294.8v-0.7l1.1-0.8v-14.2l-0.9-0.7v-0.6h8.7v3.8h-1.3l-0.7-2.3h-3.2v6.3h2.2l0.7-1.3h0.7v4.1h-0.7
		l-0.7-1.2h-2.2v5.3c0,0.4-0.1,0.6-0.5,0.8v0.1h4l0.9-2.3h1.1v3.8H216.1z"/>
</g>
</svg>
