<!-- Generator: Adobe Illustrator 19.0.1, SVG Export Plug-In  -->
<svg version="1.1"
	 xmlns="http://www.w3.org/2000/svg" xmlns:xlink="http://www.w3.org/1999/xlink" xmlns:a="http://ns.adobe.com/AdobeSVGViewerExtensions/3.0/"
	 x="0px" y="0px" width="92.032px" height="93.889px" viewBox="0 0 92.032 93.889"
	 style="enable-background:new 0 0 92.032 93.889;" xml:space="preserve">
<style type="text/css">
	.st0{fill:#373235;}
	.st1{fill:#594736;}
	.st2{fill:#DED3B4;}
	.st3{fill:#B09676;}
</style>
<defs>
</defs>
<polygon class="st0" points="37.334,79.461 54.699,79.461 74.505,45.153 65.824,30.115 26.208,30.115 17.526,45.153 37.334,79.461 
	"/>
<path class="st1" d="M22.937,54.575l5.164,8.945c5.688-2.033,11.714-3.064,17.915-3.064c6.203,0,12.228,1.031,17.916,3.064
	l5.164-8.945c-7.307-2.712-15.07-4.088-23.08-4.088C38.007,50.487,30.243,51.863,22.937,54.575L22.937,54.575z"/>
<g>
	<path class="st2" d="M55.058,80.085H36.973l-0.09-0.156L16.805,45.153l9.043-15.663h40.337l9.043,15.663l-0.092,0.156
		L55.058,80.085L55.058,80.085z M37.334,79.461h17.365l19.807-34.308l-8.682-15.038H26.208l-8.682,15.038L37.334,79.461
		L37.334,79.461z"/>
</g>
<g>
	<path class="st3" d="M56.457,82.505h-20.88L14.011,45.153l10.44-18.083h43.13l10.439,18.083L56.457,82.505L56.457,82.505z
		 M36.628,80.684h18.776l20.514-35.531l-9.387-16.261H25.502l-9.388,16.261L36.628,80.684L36.628,80.684z"/>
</g>
<g>
	<g>
		<g>
			<g>
				<g>
					<path class="st3" d="M52.933,19.403c-0.834,0-1.814-0.319-2.791-0.923c-3.644-2.252-7.776-7.716-9.349-11.408
						c-0.057-0.132,0.005-0.286,0.138-0.342c0.133-0.057,0.285,0.005,0.342,0.138c1.51,3.544,5.637,9.001,9.143,11.169
						c1.156,0.714,2.289,0.996,3.107,0.772c0.445-0.122,0.779-0.389,0.992-0.795c0.309-0.592,0.182-1.017,0.02-1.27
						c-0.225-0.349-0.648-0.57-1.059-0.547c-0.336,0.018-0.607,0.2-0.764,0.512c-0.064,0.129-0.223,0.182-0.35,0.117
						c-0.129-0.064-0.182-0.221-0.117-0.35c0.24-0.48,0.678-0.771,1.203-0.8c0.6-0.034,1.197,0.276,1.523,0.786
						c0.336,0.522,0.338,1.159,0.004,1.794c-0.279,0.532-0.732,0.897-1.314,1.056C53.435,19.373,53.191,19.403,52.933,19.403
						L52.933,19.403z"/>
				</g>
				<g>
					<path class="st3" d="M59.373,24.087c-5.121,0-12.068-2.458-17.024-9.44c-0.084-0.117-0.057-0.28,0.062-0.364
						c0.117-0.083,0.28-0.056,0.363,0.062c5.07,7.141,12.251,9.438,17.289,9.204c3.967-0.183,7.17-1.889,8.787-4.68
						c1.508-2.602,1.111-6.393-2.565-8.606c-2.236-1.347-5.73-1.025-7.367,1.601c-0.695,1.12-0.828,2.512-0.346,3.633
						c0.42,0.977,1.267,1.64,2.385,1.868c1.48,0.206,2.297-0.502,2.65-0.943c0.512-0.636,0.682-1.478,0.432-2.145
						c-0.305-0.819-1.092-1.092-1.738-1c-0.553,0.08-1.164,0.457-1.223,1.276c-0.012,0.144-0.141,0.252-0.279,0.242
						c-0.145-0.01-0.252-0.135-0.242-0.279c0.066-0.93,0.723-1.619,1.67-1.755c0.826-0.119,1.897,0.248,2.303,1.334
						c0.311,0.836,0.109,1.877-0.514,2.654c-0.721,0.897-1.869,1.309-3.147,1.13c-1.307-0.266-2.287-1.037-2.775-2.175
						c-0.551-1.276-0.404-2.853,0.383-4.115c1.797-2.887,5.629-3.247,8.076-1.772c3.965,2.387,4.383,6.493,2.748,9.315
						c-1.707,2.948-5.066,4.748-9.215,4.94C59.853,24.082,59.615,24.087,59.373,24.087L59.373,24.087z"/>
				</g>
				<g>
					<path class="st3" d="M75.814,31.882c-0.459,0-0.914-0.09-1.34-0.278c-1.908-0.84-2.398-2.237-2.221-3.264
						c0.207-1.202,1.062-1.66,1.73-1.687c0.797-0.032,1.494,0.473,1.689,1.23c0.035,0.14-0.049,0.282-0.188,0.318
						c-0.141,0.035-0.281-0.048-0.318-0.188c-0.156-0.606-0.699-0.861-1.162-0.839c-0.496,0.02-1.084,0.36-1.238,1.255
						c-0.186,1.079,0.529,2.087,1.918,2.697c1.149,0.506,2.562,0.175,3.52-0.824c0.984-1.026,1.185-2.426,0.537-3.746
						c-0.674-1.368-2.211-2.257-4.115-2.376l-15.447-0.064c-0.145,0-0.26-0.118-0.26-0.262c0.002-0.144,0.117-0.26,0.262-0.26l0,0
						l15.463,0.065c2.107,0.131,3.809,1.128,4.565,2.667c0.75,1.525,0.516,3.146-0.627,4.337
						C77.824,31.455,76.81,31.882,75.814,31.882L75.814,31.882z"/>
				</g>
				<g>
					<path class="st3" d="M70.13,22.751L70.13,22.751c-0.602,0-1.188-0.093-1.744-0.277c-0.08-0.027-0.143-0.091-0.168-0.172
						c-0.023-0.082-0.008-0.169,0.045-0.236c0.713-0.915,1.705-1.585,2.867-1.938c1.148-0.349,2.371-0.341,3.461,0.019
						c0.08,0.027,0.143,0.091,0.168,0.172c0.025,0.082,0.008,0.169-0.045,0.236c-0.715,0.917-1.707,1.586-2.867,1.938
						C71.285,22.665,70.709,22.751,70.13,22.751L70.13,22.751z M68.927,22.087c0.889,0.216,1.855,0.185,2.77-0.093
						c0.926-0.28,1.73-0.781,2.354-1.459c-0.887-0.216-1.854-0.186-2.768,0.092C70.355,20.909,69.548,21.41,68.927,22.087
						L68.927,22.087z"/>
				</g>
				<g>
					<path class="st3" d="M42.563,14.752c-0.07,0-0.141-0.028-0.191-0.084c-0.099-0.106-0.092-0.271,0.014-0.369
						c3.031-2.804,7.506-8.337,3.415-13.883c-0.086-0.116-0.062-0.279,0.055-0.365c0.116-0.085,0.279-0.06,0.365,0.055
						c4.494,6.093-0.937,12.224-3.48,14.576C42.69,14.729,42.627,14.752,42.563,14.752L42.563,14.752z"/>
				</g>
			</g>
			<g>
				<g>
					<path class="st3" d="M39.071,19.403c-0.258,0-0.502-0.03-0.729-0.092c-0.581-0.159-1.035-0.524-1.313-1.056
						c-0.333-0.635-0.332-1.272,0.003-1.794c0.327-0.51,0.927-0.818,1.525-0.786c0.524,0.028,0.963,0.32,1.203,0.8
						c0.064,0.129,0.012,0.286-0.117,0.35c-0.129,0.064-0.285,0.012-0.35-0.117c-0.156-0.312-0.428-0.494-0.765-0.512
						c-0.409-0.02-0.834,0.198-1.058,0.547c-0.163,0.253-0.291,0.678,0.02,1.27c0.212,0.406,0.546,0.673,0.99,0.795
						c0.818,0.224,1.951-0.057,3.108-0.772c3.506-2.167,7.632-7.625,9.144-11.169c0.055-0.132,0.209-0.194,0.342-0.138
						c0.133,0.057,0.193,0.21,0.137,0.342c-1.572,3.691-5.706,9.156-9.348,11.408C40.886,19.083,39.906,19.403,39.071,19.403
						L39.071,19.403z"/>
				</g>
				<g>
					<path class="st3" d="M32.634,24.087c-0.242,0-0.48-0.005-0.714-0.016c-4.148-0.191-7.507-1.992-9.215-4.94
						c-1.636-2.822-1.218-6.927,2.747-9.315c2.449-1.475,6.28-1.115,8.078,1.772c0.785,1.262,0.932,2.839,0.383,4.115
						c-0.49,1.138-1.471,1.909-2.761,2.172c-1.295,0.182-2.44-0.23-3.161-1.128c-0.624-0.776-0.825-1.818-0.514-2.653
						c0.404-1.085,1.476-1.452,2.301-1.334c0.948,0.136,1.604,0.825,1.67,1.755c0.01,0.144-0.098,0.269-0.242,0.279
						c-0.143,0.012-0.268-0.098-0.278-0.242c-0.059-0.819-0.671-1.196-1.224-1.276c-0.646-0.093-1.433,0.181-1.737,1
						c-0.249,0.667-0.08,1.509,0.432,2.145c0.354,0.44,1.168,1.149,2.665,0.94c1.103-0.225,1.95-0.888,2.37-1.864
						c0.482-1.122,0.35-2.514-0.347-3.633c-1.635-2.625-5.128-2.948-7.366-1.601c-3.676,2.213-4.072,6.005-2.564,8.606
						c1.617,2.792,4.82,4.497,8.787,4.68c5.036,0.233,12.22-2.063,17.289-9.204c0.084-0.118,0.246-0.145,0.363-0.062
						c0.117,0.084,0.145,0.247,0.062,0.364C44.701,21.629,37.753,24.087,32.634,24.087L32.634,24.087z"/>
				</g>
				<g>
					<path class="st3" d="M16.191,31.882c-0.996,0-2.009-0.427-2.768-1.218c-1.142-1.191-1.377-2.812-0.628-4.337
						c0.757-1.539,2.457-2.536,4.549-2.666l15.479-0.065h0.001c0.144,0,0.261,0.116,0.261,0.26c0.001,0.144-0.115,0.261-0.26,0.262
						l-15.463,0.065c-1.888,0.119-3.425,1.007-4.098,2.376c-0.648,1.319-0.447,2.72,0.536,3.746
						c0.957,0.998,2.372,1.329,3.519,0.823c1.388-0.61,2.104-1.619,1.917-2.697c-0.154-0.894-0.74-1.234-1.237-1.255
						c-0.471-0.022-1.007,0.233-1.163,0.839c-0.036,0.14-0.178,0.224-0.317,0.188c-0.14-0.036-0.224-0.179-0.188-0.318
						c0.195-0.757,0.894-1.264,1.689-1.23c0.669,0.027,1.523,0.485,1.731,1.687c0.177,1.027-0.312,2.424-2.221,3.264
						C17.105,31.791,16.65,31.882,16.191,31.882L16.191,31.882z"/>
				</g>
				<g>
					<path class="st3" d="M21.874,22.751c-0.577,0-1.154-0.086-1.717-0.257c-1.16-0.351-2.152-1.021-2.867-1.938
						c-0.053-0.067-0.069-0.155-0.045-0.236c0.025-0.081,0.088-0.145,0.168-0.172c1.091-0.36,2.313-0.368,3.462-0.019
						c1.162,0.352,2.153,1.022,2.867,1.938c0.053,0.067,0.069,0.155,0.044,0.236c-0.024,0.081-0.087,0.145-0.168,0.172
						C23.063,22.658,22.476,22.751,21.874,22.751L21.874,22.751z M17.955,20.535c0.622,0.678,1.429,1.179,2.354,1.459
						c0.915,0.278,1.882,0.309,2.768,0.093c-0.621-0.677-1.427-1.178-2.353-1.46C19.809,20.35,18.842,20.319,17.955,20.535
						L17.955,20.535z"/>
				</g>
				<g>
					<path class="st3" d="M49.441,14.752c-0.062,0-0.127-0.023-0.176-0.07c-2.544-2.353-7.975-8.483-3.48-14.576
						c0.086-0.116,0.249-0.141,0.365-0.055c0.116,0.086,0.141,0.249,0.055,0.365c-4.093,5.547,0.382,11.079,3.414,13.883
						c0.105,0.098,0.113,0.263,0.014,0.369C49.582,14.724,49.511,14.752,49.441,14.752L49.441,14.752z"/>
				</g>
			</g>
		</g>
		<g>
			<g>
				<g>
					<path class="st3" d="M10.295,79.366c-0.054,0-0.109-0.017-0.156-0.052c-0.115-0.086-0.139-0.25-0.052-0.365
						c2.314-3.08,4.977-9.382,5.101-13.502c0.041-1.359-0.282-2.48-0.886-3.078c-0.328-0.324-0.727-0.479-1.184-0.46
						c-0.668,0.027-0.973,0.351-1.11,0.618c-0.189,0.369-0.167,0.847,0.056,1.19c0.185,0.283,0.479,0.426,0.826,0.405
						c0.145-0.009,0.268,0.101,0.276,0.245c0.009,0.144-0.102,0.268-0.245,0.276c-0.537,0.032-1.008-0.202-1.294-0.642
						c-0.328-0.503-0.36-1.176-0.082-1.714c0.284-0.551,0.835-0.871,1.552-0.9c0.6-0.025,1.144,0.187,1.572,0.611
						c0.706,0.699,1.085,1.961,1.04,3.464c-0.128,4.281-2.795,10.592-5.205,13.8C10.453,79.33,10.375,79.366,10.295,79.366
						L10.295,79.366z"/>
				</g>
				<g>
					<path class="st3" d="M16.05,74.279c-0.036,0-0.073-0.008-0.108-0.024c-0.132-0.06-0.188-0.215-0.129-0.346
						c3.649-7.96,2.046-15.331-0.673-19.574c-2.143-3.345-5.221-5.266-8.446-5.27c-0.004,0-0.007,0-0.01,0
						c-3.004,0-6.082,2.239-6.161,6.525c-0.049,2.61,1.977,5.474,5.069,5.578c1.312,0.043,2.589-0.537,3.319-1.516
						c0.636-0.852,0.786-1.918,0.425-3c-0.561-1.384-1.583-1.738-2.143-1.824c-0.807-0.125-1.62,0.15-2.072,0.698
						c-0.558,0.675-0.4,1.494,0.003,2.005c0.346,0.439,0.979,0.781,1.716,0.422c0.13-0.063,0.286-0.009,0.349,0.121
						c0.063,0.129,0.01,0.286-0.12,0.349c-0.838,0.408-1.763,0.185-2.355-0.568c-0.515-0.655-0.733-1.766,0.005-2.66
						c0.567-0.687,1.569-1.033,2.554-0.882c1.138,0.175,2.068,0.962,2.553,2.159c0.423,1.265,0.244,2.5-0.496,3.493
						c-0.83,1.113-2.269,1.774-3.755,1.725c-3.399-0.114-5.627-3.25-5.573-6.109c0.085-4.627,3.439-7.041,6.692-7.037
						c3.407,0.005,6.645,2.014,8.886,5.51c2.793,4.359,4.445,11.922,0.708,20.073C16.243,74.223,16.148,74.279,16.05,74.279
						L16.05,74.279z"/>
				</g>
				<g>
					<path class="st3" d="M15.845,55.207c-0.09,0-0.178-0.047-0.227-0.131L7.943,41.651c-0.94-1.891-0.927-3.862,0.027-5.286
						c0.946-1.412,2.468-2.019,4.07-1.625c1.555,0.382,2.707,1.623,2.868,3.087c0.227,2.073-0.738,3.196-1.717,3.556
						c-1.144,0.42-1.969-0.09-2.326-0.656c-0.428-0.675-0.337-1.53,0.221-2.078c0.102-0.101,0.268-0.1,0.369,0.003
						c0.101,0.103,0.099,0.268-0.004,0.369c-0.446,0.439-0.394,1.033-0.146,1.427c0.267,0.42,0.855,0.758,1.706,0.445
						c1.027-0.377,1.542-1.502,1.377-3.009c-0.136-1.247-1.13-2.307-2.474-2.637c-1.38-0.339-2.693,0.188-3.512,1.409
						c-0.849,1.267-0.85,3.043-0.001,4.75l7.668,13.411c0.071,0.125,0.028,0.285-0.097,0.356
						C15.934,55.195,15.889,55.207,15.845,55.207L15.845,55.207z"/>
				</g>
				<g>
					<path class="st3" d="M9.79,47.977c-0.012,0-0.023-0.001-0.036-0.002c-1.149-0.16-2.226-0.684-3.112-1.515
						c-0.885-0.828-1.477-1.868-1.713-3.007c-0.018-0.083,0.007-0.169,0.065-0.231c0.058-0.062,0.141-0.092,0.227-0.08
						c1.151,0.162,2.227,0.686,3.111,1.515c0.885,0.828,1.478,1.868,1.714,3.007c0.017,0.083-0.007,0.17-0.066,0.232
						C9.931,47.948,9.862,47.977,9.79,47.977L9.79,47.977z M5.535,43.729c0.259,0.877,0.769,1.7,1.463,2.35
						c0.708,0.663,1.545,1.111,2.442,1.31c-0.259-0.884-0.76-1.691-1.465-2.351C7.271,44.375,6.434,43.928,5.535,43.729
						L5.535,43.729z"/>
				</g>
				<g>
					<path class="st3" d="M1.997,78.409c-0.035,0-0.07-0.007-0.104-0.021C1.761,78.33,1.7,78.176,1.758,78.044
						c3.03-6.939,11.054-5.301,14.363-4.274c0.138,0.043,0.214,0.189,0.172,0.327c-0.043,0.138-0.188,0.215-0.327,0.172
						c-3.943-1.224-10.972-2.332-13.729,3.985C2.193,78.351,2.098,78.409,1.997,78.409L1.997,78.409z"/>
				</g>
			</g>
			<g>
				<g>
					<path class="st3" d="M20.594,77.826c-0.026,0-0.052-0.001-0.078-0.002c-0.606-0.028-1.172-0.393-1.443-0.928
						c-0.238-0.468-0.205-0.994,0.091-1.442c0.079-0.12,0.241-0.153,0.361-0.074c0.12,0.08,0.153,0.241,0.074,0.361
						c-0.192,0.292-0.214,0.618-0.062,0.918c0.185,0.365,0.589,0.623,1.003,0.643c0.302,0.014,0.732-0.088,1.09-0.652
						c0.245-0.387,0.309-0.809,0.192-1.255c-0.215-0.821-1.025-1.662-2.222-2.306c-3.629-1.953-10.42-2.798-14.243-2.334
						c-0.146,0.016-0.273-0.085-0.291-0.228c-0.018-0.143,0.085-0.273,0.227-0.29c3.984-0.483,10.782,0.364,14.554,2.393
						c1.324,0.713,2.228,1.672,2.479,2.633c0.153,0.583,0.065,1.159-0.257,1.666C21.703,77.51,21.181,77.826,20.594,77.826
						L20.594,77.826z"/>
				</g>
				<g>
					<path class="st3" d="M24.31,92.209c-1.183,0-2.456-0.313-3.759-1.034c-2.502-1.384-4.106-4.881-2.503-7.881
						c0.7-1.312,1.992-2.228,3.371-2.39c1.232-0.145,2.389,0.319,3.262,1.305c0.805,1.03,1.021,2.229,0.604,3.302
						c-0.36,0.928-1.161,1.623-2.04,1.771c-1.144,0.192-1.997-0.552-2.306-1.325c-0.356-0.889-0.088-1.801,0.685-2.324
						c0.119-0.081,0.281-0.049,0.362,0.07c0.08,0.12,0.049,0.282-0.07,0.362c-0.681,0.46-0.7,1.179-0.493,1.698
						c0.242,0.605,0.872,1.15,1.735,1.004c0.701-0.118,1.346-0.685,1.642-1.445c0.204-0.527,0.409-1.589-0.52-2.779
						c-0.746-0.842-1.743-1.244-2.799-1.12c-1.213,0.143-2.351,0.954-2.973,2.117c-1.457,2.729,0.011,5.915,2.296,7.179
						c3.755,2.076,7.237,0.524,8.735-2.082c1.609-2.796,1.484-6.423-0.341-9.951c-2.315-4.476-7.896-9.55-16.615-10.37
						c-0.143-0.014-0.248-0.141-0.234-0.284c0.013-0.144,0.144-0.248,0.283-0.235c8.928,0.839,14.651,6.051,17.03,10.649
						c1.908,3.688,2.028,7.498,0.329,10.451C28.889,90.814,26.802,92.209,24.31,92.209L24.31,92.209z"/>
				</g>
				<g>
					<path class="st3" d="M40.906,93.889c-1.619,0-3.215-0.961-4.312-2.615l-7.796-13.372c-0.072-0.125-0.03-0.284,0.094-0.357
						c0.124-0.072,0.284-0.031,0.356,0.094l7.788,13.358c1.047,1.575,2.584,2.462,4.107,2.361c1.467-0.099,2.579-0.973,2.975-2.338
						c0.387-1.328-0.034-2.718-1.046-3.46c-1.222-0.896-2.454-1.012-3.295-0.312c-0.697,0.582-0.698,1.259-0.468,1.7
						c0.217,0.413,0.704,0.754,1.309,0.587c0.138-0.039,0.282,0.042,0.321,0.182c0.038,0.139-0.043,0.282-0.182,0.321
						c-0.754,0.209-1.539-0.14-1.91-0.847c-0.311-0.593-0.341-1.562,0.596-2.343c0.801-0.668,2.256-0.942,3.937,0.291
						c1.188,0.871,1.687,2.489,1.24,4.026c-0.461,1.585-1.748,2.599-3.442,2.713C41.087,93.886,40.997,93.889,40.906,93.889
						L40.906,93.889z"/>
				</g>
				<g>
					<path class="st3" d="M33.691,93.037c-0.063,0-0.125-0.023-0.174-0.066c-0.868-0.774-1.473-1.807-1.747-2.987
						c-0.275-1.183-0.191-2.377,0.243-3.453c0.032-0.079,0.101-0.137,0.183-0.156c0.082-0.019,0.17,0.003,0.233,0.06
						c0.868,0.774,1.473,1.808,1.747,2.988c0.276,1.18,0.192,2.374-0.243,3.452c-0.032,0.079-0.1,0.137-0.183,0.156
						C33.731,93.035,33.711,93.037,33.691,93.037L33.691,93.037z M32.365,87.096c-0.276,0.877-0.307,1.826-0.087,2.769
						c0.22,0.941,0.667,1.779,1.304,2.443c0.276-0.877,0.308-1.827,0.087-2.768C33.45,88.599,33.002,87.761,32.365,87.096
						L32.365,87.096z"/>
				</g>
				<g>
					<path class="st3" d="M3.09,78.485c-0.358,0-0.73-0.02-1.114-0.064c-0.144-0.016-0.246-0.145-0.23-0.288
						c0.016-0.144,0.145-0.246,0.288-0.23c6.847,0.77,9.404-5.871,10.316-9.898c0.032-0.141,0.172-0.23,0.312-0.197
						c0.141,0.032,0.229,0.171,0.196,0.312C12.132,71.326,9.76,78.485,3.09,78.485L3.09,78.485z"/>
				</g>
			</g>
		</g>
		<g>
			<g>
				<g>
					<path class="st3" d="M81.736,79.366c-0.078,0-0.156-0.036-0.207-0.104c-2.41-3.208-5.076-9.518-5.205-13.8
						c-0.045-1.503,0.334-2.766,1.041-3.465c0.428-0.424,0.975-0.634,1.57-0.61c0.717,0.029,1.268,0.349,1.553,0.9
						c0.277,0.539,0.244,1.211-0.082,1.714c-0.287,0.44-0.758,0.674-1.295,0.642c-0.143-0.009-0.254-0.132-0.244-0.276
						c0.008-0.144,0.135-0.254,0.275-0.245c0.348,0.021,0.642-0.123,0.826-0.405c0.223-0.343,0.246-0.821,0.055-1.19
						c-0.137-0.267-0.441-0.591-1.109-0.618c-0.459-0.019-0.855,0.136-1.184,0.46c-0.604,0.597-0.926,1.719-0.885,3.078
						c0.123,4.121,2.787,10.423,5.1,13.502c0.088,0.115,0.064,0.279-0.051,0.365C81.847,79.349,81.791,79.366,81.736,79.366
						L81.736,79.366z"/>
				</g>
				<g>
					<path class="st3" d="M75.982,74.279c-0.098,0-0.193-0.057-0.236-0.152c-3.738-8.151-2.086-15.714,0.707-20.073
						c2.24-3.497,5.479-5.505,8.885-5.51c0.004,0,0.008,0,0.012,0c3.258,0,6.598,2.415,6.682,7.037
						c0.055,2.858-2.174,5.995-5.572,6.109c-1.488,0.05-2.926-0.612-3.756-1.725c-0.74-0.994-0.918-2.229-0.502-3.477
						c0.49-1.212,1.42-1.999,2.559-2.174c0.982-0.152,1.986,0.194,2.555,0.882c0.738,0.894,0.52,2.005,0.004,2.66
						c-0.592,0.753-1.516,0.976-2.354,0.568c-0.131-0.063-0.184-0.219-0.121-0.349c0.062-0.129,0.219-0.184,0.348-0.121
						c0.738,0.359,1.371,0.018,1.719-0.422c0.402-0.512,0.559-1.331,0.002-2.005c-0.453-0.548-1.268-0.822-2.074-0.698
						c-0.559,0.086-1.58,0.44-2.146,1.839c-0.355,1.067-0.205,2.132,0.43,2.985c0.73,0.978,2.004,1.559,3.32,1.516
						c3.092-0.104,5.117-2.968,5.068-5.578c-0.078-4.286-3.156-6.525-6.16-6.525c-0.004,0-0.006,0-0.01,0
						c-3.227,0.004-6.305,1.925-8.447,5.27c-2.719,4.244-4.322,11.614-0.672,19.575c0.059,0.131,0.002,0.286-0.129,0.346
						C76.056,74.271,76.019,74.279,75.982,74.279L75.982,74.279z"/>
				</g>
				<g>
					<path class="st3" d="M76.187,55.207c-0.043,0-0.088-0.011-0.129-0.035c-0.125-0.071-0.168-0.231-0.098-0.356l7.676-13.424
						c0.842-1.694,0.84-3.47-0.008-4.737c-0.818-1.221-2.133-1.748-3.514-1.409c-1.342,0.33-2.336,1.39-2.473,2.637
						c-0.164,1.507,0.35,2.632,1.377,3.009c0.854,0.313,1.441-0.025,1.707-0.445c0.248-0.394,0.301-0.988-0.146-1.426
						c-0.102-0.101-0.104-0.266-0.004-0.369c0.102-0.103,0.268-0.104,0.369-0.003c0.559,0.548,0.65,1.402,0.223,2.078
						c-0.359,0.565-1.184,1.076-2.328,0.656c-0.979-0.359-1.943-1.482-1.717-3.556c0.16-1.464,1.314-2.705,2.869-3.087
						c1.602-0.393,3.123,0.214,4.07,1.625c0.953,1.425,0.967,3.396,0.035,5.273l-7.684,13.438
						C76.365,55.159,76.277,55.207,76.187,55.207L76.187,55.207z"/>
				</g>
				<g>
					<path class="st3" d="M82.242,47.977c-0.072,0-0.141-0.029-0.189-0.083c-0.059-0.062-0.084-0.148-0.066-0.232
						c0.236-1.139,0.83-2.179,1.715-3.007c0.883-0.829,1.959-1.353,3.111-1.515c0.084-0.012,0.168,0.018,0.227,0.08
						c0.059,0.062,0.082,0.148,0.064,0.231c-0.236,1.139-0.828,2.179-1.713,3.007c-0.887,0.831-1.963,1.355-3.113,1.515
						C82.265,47.977,82.253,47.977,82.242,47.977L82.242,47.977z M86.498,43.729c-0.898,0.199-1.736,0.647-2.439,1.308
						c-0.707,0.661-1.209,1.468-1.467,2.352c0.898-0.199,1.734-0.647,2.443-1.31C85.728,45.429,86.238,44.605,86.498,43.729
						L86.498,43.729z"/>
				</g>
				<g>
					<path class="st3" d="M90.035,78.409c-0.1,0-0.195-0.058-0.238-0.156c-2.758-6.318-9.787-5.209-13.73-3.985
						c-0.139,0.043-0.283-0.034-0.326-0.172c-0.043-0.138,0.033-0.284,0.172-0.327c3.309-1.027,11.334-2.665,14.363,4.274
						c0.057,0.132-0.004,0.286-0.135,0.344C90.105,78.402,90.07,78.409,90.035,78.409L90.035,78.409z"/>
				</g>
			</g>
			<g>
				<g>
					<path class="st3" d="M71.439,77.826c-0.588,0-1.109-0.316-1.477-0.896c-0.322-0.507-0.41-1.083-0.258-1.666
						c0.252-0.961,1.156-1.921,2.48-2.634c3.771-2.029,10.568-2.875,14.553-2.393c0.143,0.017,0.246,0.147,0.229,0.29
						c-0.018,0.143-0.146,0.244-0.291,0.228c-3.824-0.464-10.613,0.381-14.244,2.334c-1.197,0.644-2.006,1.485-2.221,2.306
						c-0.117,0.446-0.053,0.868,0.191,1.255c0.357,0.564,0.789,0.666,1.09,0.652c0.414-0.02,0.818-0.278,1.004-0.643
						c0.152-0.301,0.131-0.627-0.062-0.918c-0.078-0.12-0.045-0.282,0.074-0.361c0.121-0.079,0.283-0.046,0.361,0.074
						c0.297,0.448,0.33,0.974,0.092,1.442c-0.271,0.535-0.84,0.899-1.443,0.928C71.49,77.825,71.464,77.826,71.439,77.826
						L71.439,77.826z"/>
				</g>
				<g>
					<path class="st3" d="M67.722,92.209c-2.492,0-4.578-1.395-5.682-3.313c-1.699-2.953-1.578-6.762,0.33-10.45
						c2.379-4.598,8.101-9.81,17.029-10.649c0.141-0.013,0.27,0.092,0.283,0.235c0.014,0.144-0.092,0.271-0.234,0.284
						c-8.719,0.819-14.299,5.894-16.615,10.37c-1.826,3.527-1.949,7.154-0.34,9.95c1.498,2.607,4.978,4.159,8.734,2.083
						c2.285-1.264,3.754-4.45,2.297-7.179c-0.621-1.163-1.76-1.975-2.973-2.117c-1.055-0.125-2.053,0.278-2.811,1.132
						c-0.918,1.178-0.713,2.24-0.508,2.767c0.295,0.76,0.939,1.328,1.641,1.445c0.863,0.146,1.494-0.399,1.736-1.004
						c0.207-0.519,0.188-1.237-0.494-1.698c-0.119-0.081-0.15-0.243-0.07-0.362c0.082-0.119,0.244-0.15,0.363-0.07
						c0.771,0.522,1.041,1.434,0.686,2.324c-0.311,0.773-1.164,1.518-2.307,1.325c-0.879-0.148-1.68-0.843-2.041-1.771
						c-0.416-1.073-0.201-2.272,0.594-3.289c0.883-0.999,2.043-1.461,3.271-1.317c1.381,0.162,2.672,1.078,3.371,2.39
						c1.602,3,0,6.498-2.502,7.881C70.179,91.895,68.904,92.209,67.722,92.209L67.722,92.209z"/>
				</g>
				<g>
					<path class="st3" d="M51.126,93.889c-0.092,0-0.182-0.003-0.271-0.009c-1.695-0.114-2.982-1.128-3.443-2.713
						c-0.446-1.537,0.052-3.155,1.24-4.026c1.682-1.233,3.137-0.959,3.938-0.291c0.936,0.781,0.906,1.75,0.596,2.343
						c-0.371,0.708-1.156,1.056-1.91,0.847c-0.139-0.038-0.221-0.182-0.182-0.321c0.039-0.139,0.182-0.22,0.32-0.182
						c0.605,0.168,1.092-0.174,1.309-0.587c0.23-0.44,0.23-1.118-0.467-1.7c-0.842-0.701-2.072-0.584-3.295,0.312
						c-1.012,0.742-1.434,2.132-1.047,3.46c0.396,1.365,1.51,2.239,2.977,2.338c1.525,0.102,3.061-0.786,4.113-2.374l7.781-13.346
						c0.072-0.125,0.232-0.166,0.355-0.094c0.125,0.073,0.168,0.232,0.094,0.357l-7.787,13.359
						C54.341,92.927,52.746,93.889,51.126,93.889L51.126,93.889z"/>
				</g>
				<g>
					<path class="st3" d="M58.341,93.037c-0.021,0-0.041-0.002-0.061-0.007c-0.082-0.019-0.15-0.078-0.182-0.156
						c-0.436-1.078-0.52-2.271-0.244-3.452c0.275-1.181,0.879-2.214,1.748-2.988c0.063-0.057,0.148-0.079,0.232-0.06
						c0.082,0.02,0.15,0.078,0.182,0.156c0.436,1.076,0.52,2.271,0.244,3.453c-0.275,1.181-0.879,2.214-1.748,2.987
						C58.466,93.014,58.404,93.037,58.341,93.037L58.341,93.037z M59.668,87.096c-0.637,0.665-1.086,1.503-1.305,2.444
						c-0.221,0.941-0.19,1.891,0.088,2.768c0.635-0.665,1.084-1.502,1.303-2.444C59.974,88.922,59.943,87.972,59.668,87.096
						L59.668,87.096z"/>
				</g>
				<g>
					<path class="st3" d="M88.941,78.485c-6.67,0-9.041-7.159-9.768-10.365c-0.031-0.141,0.057-0.28,0.197-0.312
						c0.141-0.033,0.279,0.056,0.31,0.197c0.914,4.027,3.467,10.669,10.316,9.898c0.145-0.016,0.273,0.087,0.289,0.23
						c0.016,0.143-0.086,0.272-0.23,0.288C89.673,78.464,89.3,78.485,88.941,78.485L88.941,78.485z"/>
				</g>
			</g>
		</g>
	</g>
	<g>
		<path class="st3" d="M21.23,68.736c-0.905,0-1.643-0.737-1.643-1.643c0-0.906,0.737-1.643,1.643-1.643
			c0.906,0,1.643,0.737,1.643,1.643C22.873,67.999,22.136,68.736,21.23,68.736L21.23,68.736z M21.23,65.972
			c-0.617,0-1.121,0.503-1.121,1.121c0,0.618,0.504,1.122,1.121,1.122c0.619,0,1.122-0.503,1.122-1.122
			C22.352,66.475,21.849,65.972,21.23,65.972L21.23,65.972z"/>
	</g>
	<g>
		<path class="st3" d="M46.02,24.072c-0.906,0-1.644-0.737-1.644-1.643c0-0.906,0.737-1.643,1.644-1.643
			c0.905,0,1.642,0.737,1.642,1.643C47.662,23.334,46.925,24.072,46.02,24.072L46.02,24.072z M46.02,21.307
			c-0.619,0-1.122,0.503-1.122,1.122c0,0.618,0.503,1.121,1.122,1.121c0.618,0,1.121-0.503,1.121-1.121
			C47.141,21.81,46.638,21.307,46.02,21.307L46.02,21.307z"/>
	</g>
	<g>
		<path class="st3" d="M70.699,68.627c-0.906,0-1.643-0.737-1.643-1.643c0-0.906,0.736-1.643,1.643-1.643
			c0.906,0,1.643,0.737,1.643,1.643C72.341,67.89,71.605,68.627,70.699,68.627L70.699,68.627z M70.699,65.862
			c-0.617,0-1.121,0.503-1.121,1.122c0,0.618,0.504,1.121,1.121,1.121c0.619,0,1.121-0.503,1.121-1.121
			C71.82,66.365,71.318,65.862,70.699,65.862L70.699,65.862z"/>
	</g>
</g>
<g>
	<path class="st2" d="M64.187,64.224l-0.225-0.082c-5.691-2.064-11.729-3.111-17.947-3.111c-6.217,0-12.255,1.046-17.945,3.111
		l-0.227,0.082l-5.743-9.948l0.316-0.119c7.465-2.815,15.404-4.243,23.599-4.243c8.195,0,16.134,1.428,23.599,4.243l0.316,0.119
		L64.187,64.224L64.187,64.224z M22.937,54.575l5.164,8.945c5.688-2.033,11.714-3.064,17.915-3.064
		c6.203,0,12.228,1.031,17.916,3.064l5.164-8.945c-7.307-2.712-15.07-4.088-23.08-4.088C38.007,50.487,30.243,51.863,22.937,54.575
		L22.937,54.575z"/>
</g>
<g>
	<path class="st2" d="M52.923,36.619c-0.512-0.057-0.959,0.253-1.002,0.684c-0.025,0.281,0.123,0.544,0.369,0.708
		c-1.346,1.31-1.982,1.984-3.19,3.362c-0.848-1.997-1.785-3.956-2.805-5.871c0.379-0.1,0.658-0.391,0.663-0.739
		c0.007-0.433-0.42-0.791-0.953-0.791c-0.532,0-0.958,0.358-0.952,0.791c0.006,0.349,0.285,0.64,0.664,0.739
		c-1.021,1.915-1.958,3.875-2.805,5.872c-1.204-1.375-1.841-2.048-3.184-3.355c0.252-0.164,0.408-0.43,0.381-0.716
		c-0.042-0.431-0.49-0.741-1.002-0.685c-0.512,0.057-0.882,0.458-0.828,0.888c0.055,0.43,0.502,0.726,1.001,0.67
		c0.017-0.002,0.032-0.004,0.049-0.006c0.558,2.07,1.093,4.143,1.606,6.225c0.32-0.03,0.48-0.044,0.802-0.069
		c1.385-0.109,2.078-0.141,3.466-0.162c0.644-0.009,0.965-0.01,1.607,0c1.387,0.02,2.082,0.052,3.467,0.161
		c0.32,0.025,0.481,0.039,0.801,0.069c0.512-2.083,1.047-4.155,1.604-6.226c0.023,0.004,0.045,0.007,0.068,0.009
		c0.498,0.056,0.945-0.241,1-0.67C53.806,37.077,53.435,36.676,52.923,36.619z M41.214,46.207c3.222-0.229,6.368-0.23,9.588-0.002
		c0.045-0.474,0.064-0.711,0.109-1.185c-3.295-0.233-6.511-0.233-9.806,0.001C41.148,45.496,41.17,45.733,41.214,46.207z"/>
</g>
<g>
	<path class="st2" d="M34.881,59.863l-2.045,0.389l-0.054-0.278l0.333-0.362l-1.029-5.401l-0.377-0.195l-0.053-0.278
		c0.727-0.128,1.231-0.234,1.957-0.372c0.834-0.159,1.494-0.039,1.677,0.92l0.179,0.938c0.081,0.422-0.012,0.803-0.423,0.967
		c0.54,0.025,0.871,0.357,0.984,0.956l0.208,1.092c0.206,1.082-0.493,1.461-1.377,1.629C34.871,59.865,34.881,59.863,34.881,59.863z
		 M34.317,54.47c-0.069-0.36-0.268-0.59-0.635-0.52l-0.646,0.123l0.429,2.247l0.635-0.121c0.428-0.081,0.456-0.471,0.395-0.791
		L34.317,54.47z M35.058,57.33c-0.101-0.525-0.338-0.747-0.884-0.643l-0.616,0.117l0.43,2.257c0.033,0.175,0.01,0.265-0.14,0.347
		l0.01,0.051l0.894-0.17c0.517-0.099,0.612-0.352,0.515-0.867L35.058,57.33z"/>
	<path class="st2" d="M40.351,57.015c-0.227-0.474-0.36-0.599-0.884-0.55c0.054,0.575,0.142,1.525,0.197,2.121l0.409,0.257
		l0.026,0.282c-0.533,0.05-1.208,0.112-1.731,0.161l-0.026-0.282l0.355-0.328c-0.168-1.818-0.34-3.667-0.507-5.475l-0.347-0.231
		l-0.026-0.282l1.842-0.171c0.977-0.09,1.827,0.211,1.935,1.37c0.024,0.271,0.053,0.574,0.079,0.856
		c0.074,0.805-0.316,1.294-0.879,1.472c0.286,0.132,0.414,0.299,0.541,0.572c0.179,0.395,0.356,0.778,0.535,1.173
		c0.113,0.242,0.296,0.573,0.573,0.495l0.036,0.386c-0.183,0.112-0.462,0.169-0.663,0.188c-0.583,0.064-0.683-0.358-0.91-0.843
		L40.351,57.015z M39.152,53.175c0.094,1.014,0.157,1.703,0.252,2.716l0.553-0.051c0.595-0.055,0.784-0.42,0.73-1.005
		c-0.026-0.282-0.055-0.585-0.079-0.856c-0.055-0.585-0.278-0.912-0.892-0.856L39.152,53.175z"/>
	<path class="st2" d="M44.912,57.081l-0.277,1.294l0.335,0.174l0.004,0.304L43.7,58.868l-0.004-0.304l0.321-0.192
		c0.422-1.946,0.9-4.238,1.343-6.174l0.98-0.011l1.528,6.109l0.326,0.216l0.004,0.304l-1.648,0.019l-0.003-0.251l0.311-0.224
		l-0.309-1.297L44.912,57.081z M45.678,53.4c-0.183,0.82-0.431,2.019-0.65,3.113l1.385-0.016L45.688,53.4L45.678,53.4z"/>
	<path class="st2" d="M50.693,58.443l0.348,0.295l-0.027,0.303l-1.42-0.129l0.027-0.303l0.387-0.228l0.496-5.485l-0.299-0.29
		l0.025-0.282l1.178,0.106c0.291,0.037,0.406,0.121,0.467,0.453l0.603,2.983l0.211,1.82l0.02,0.001
		c0.043-0.47,0.066-1.058,0.105-1.507l0.275-3.03l-0.309-0.291l0.027-0.303l1.328,0.12l-0.027,0.303l-0.355,0.231l-0.545,6.028
		l-0.816-0.073c-0.23-0.021-0.34-0.168-0.371-0.371l-0.961-5.332c-0.01-0.001-0.019,0.008-0.031,0.007l0.031,0.898L50.693,58.443z"
		/>
	<path class="st2" d="M59.373,58.511c-0.219,1.154-1.068,1.57-2.111,1.372c-0.656-0.125-1.303-0.246-1.957-0.371l0.053-0.278
		l0.432-0.217c0.338-1.783,0.678-3.577,1.016-5.359l-0.271-0.361l0.053-0.278l1.906,0.361c0.953,0.181,1.697,0.823,1.467,2.04
		L59.373,58.511z M57.783,53.865c-0.186,0.979-0.754,3.979-0.938,4.947c-0.031,0.165-0.096,0.238-0.262,0.249l-0.002,0.064
		c0.258,0.049,0.525,0.1,0.795,0.15c0.645,0.122,0.91-0.351,1.021-0.949c0.072-0.381,0.516-2.721,0.59-3.112
		c0.111-0.587,0.037-1.114-0.609-1.237L57.783,53.865z"/>
</g>
<g>
	<path class="st2" d="M40.349,69.559l0.241,0.163v0.189h-0.92v-0.189l0.235-0.163v-3.426l-0.209-0.163v-0.176h0.764
		c0.189,0.006,0.268,0.052,0.326,0.254l0.562,1.814l0.241,1.116h0.013c0-0.294-0.02-0.659-0.02-0.94v-1.893l-0.215-0.163v-0.189
		h0.861v0.189l-0.216,0.163v3.766h-0.528c-0.15,0-0.229-0.085-0.261-0.209l-0.927-3.25c-0.007,0-0.014,0.006-0.021,0.006
		l0.072,0.555V69.559z"/>
	<path class="st2" d="M43.37,68.809l-0.188,0.803l0.215,0.111v0.189h-0.822v-0.189l0.209-0.117c0.287-1.207,0.613-2.63,0.914-3.831
		h0.633l0.939,3.812l0.209,0.137v0.189h-1.064v-0.157l0.202-0.137l-0.189-0.81H43.37z M43.893,66.524
		c-0.124,0.509-0.294,1.253-0.443,1.932h0.894l-0.443-1.932H43.893z"/>
	<path class="st2" d="M46.451,69.559l0.234,0.163v0.189h-0.907v-0.189l0.235-0.163v-3.426l-0.222-0.163v-0.176h0.855
		c0.281,0,0.379,0.026,0.444,0.287c0.209,1.155,0.327,1.906,0.444,3.054h0.012l0.496-3.087c0.047-0.228,0.125-0.254,0.353-0.254
		h0.895v0.176l-0.223,0.163v3.42l0.248,0.183v0.176h-1.129v-0.176l0.248-0.183c0-2.754,0-2.748,0-2.741v-0.594h-0.019l-0.621,3.648
		H47.28c-0.131,0-0.189-0.053-0.209-0.17c-0.183-1.168-0.359-2.271-0.568-3.433h-0.085l0.033,0.744V69.559z"/>
	<path class="st2" d="M49.91,69.912v-0.176l0.256-0.183v-3.439l-0.217-0.163v-0.157h2.102v0.92h-0.307l-0.17-0.555h-0.77v1.521
		h0.535l0.164-0.32h0.182v0.992h-0.182l-0.164-0.3h-0.535v1.272c0,0.098-0.025,0.15-0.131,0.183v0.033h0.973l0.209-0.548h0.273v0.92
		H49.91z"/>
</g>
</svg>