<?xml version="1.0" encoding="utf-8"?>
<!-- Generator: Adobe Illustrator 19.0.1, SVG Export Plug-In . SVG Version: 6.00 Build 0)  -->
<!DOCTYPE svg PUBLIC "-//W3C//DTD SVG 1.1//EN" "http://www.w3.org/Graphics/SVG/1.1/DTD/svg11.dtd">
<svg version="1.1" id="Layer_1" xmlns="http://www.w3.org/2000/svg" xmlns:xlink="http://www.w3.org/1999/xlink" x="0px" y="0px"
	 viewBox="0 0 400 400" style="enable-background:new 0 0 400 400;" xml:space="preserve">
<style type="text/css">
	.st0{fill:none;stroke:#292528;stroke-width:0.75;stroke-miterlimit:10;}
</style>
<polygon class="st0" points="163.8,334.1 235.5,334.1 317.2,192.5 281.4,130.4 117.8,130.4 82,192.5 163.8,334.1 "/>
<path class="st0" d="M104.3,231.4l21.3,36.9c23.5-8.4,48.4-12.7,74-12.7c25.6,0,50.5,4.3,74,12.7l21.3-36.9
	c-30.2-11.2-62.2-16.9-95.3-16.9C166.5,214.5,134.5,220.2,104.3,231.4L104.3,231.4z"/>
<g>
	<path class="st0" d="M236.9,336.7h-74.7l-0.4-0.6L79,192.5l37.3-64.7h166.6l37.3,64.7l-0.4,0.6L236.9,336.7L236.9,336.7z
		 M163.8,334.1h71.7l81.8-141.7l-35.8-62.1H117.8L82,192.5L163.8,334.1L163.8,334.1z"/>
</g>
<g>
	<path class="st0" d="M242.7,346.7h-86.2l-89-154.2l43.1-74.7h178.1l43.1,74.7L242.7,346.7L242.7,346.7z M160.8,339.2h77.5
		l84.7-146.7l-38.8-67.1H114.9l-38.8,67.1L160.8,339.2L160.8,339.2z"/>
</g>
<g>
	<g>
		<g>
			<g>
				<g>
					<path class="st0" d="M228.2,86.1c-3.4,0-7.5-1.3-11.5-3.8c-15-9.3-32.1-31.9-38.6-47.1c-0.2-0.5,0-1.2,0.6-1.4
						c0.5-0.2,1.2,0,1.4,0.6c6.2,14.6,23.3,37.2,37.8,46.1c4.8,2.9,9.5,4.1,12.8,3.2c1.8-0.5,3.2-1.6,4.1-3.3
						c1.3-2.4,0.8-4.2,0.1-5.2c-0.9-1.4-2.7-2.4-4.4-2.3c-1.4,0.1-2.5,0.8-3.2,2.1c-0.3,0.5-0.9,0.7-1.4,0.5
						c-0.5-0.3-0.8-0.9-0.5-1.4c1-2,2.8-3.2,5-3.3c2.5-0.1,4.9,1.1,6.3,3.2c1.4,2.2,1.4,4.8,0,7.4c-1.2,2.2-3,3.7-5.4,4.4
						C230.2,86,229.2,86.1,228.2,86.1L228.2,86.1z"/>
				</g>
				<g>
					<path class="st0" d="M254.7,105.5c-21.1,0-49.8-10.1-70.3-39c-0.3-0.5-0.2-1.2,0.3-1.5c0.5-0.3,1.2-0.2,1.5,0.3
						c20.9,29.5,50.6,39,71.4,38c16.4-0.8,29.6-7.8,36.3-19.3c6.2-10.7,4.6-26.4-10.6-35.5c-9.2-5.6-23.7-4.2-30.4,6.6
						c-2.9,4.6-3.4,10.4-1.4,15c1.7,4,5.2,6.8,9.8,7.7c6.1,0.9,9.5-2.1,10.9-3.9c2.1-2.6,2.8-6.1,1.8-8.9c-1.3-3.4-4.5-4.5-7.2-4.1
						c-2.3,0.3-4.8,1.9-5,5.3c0,0.6-0.6,1-1.2,1c-0.6,0-1-0.6-1-1.2c0.3-3.8,3-6.7,6.9-7.2c3.4-0.5,7.8,1,9.5,5.5
						c1.3,3.5,0.5,7.8-2.1,11c-3,3.7-7.7,5.4-13,4.7c-5.4-1.1-9.4-4.3-11.5-9c-2.3-5.3-1.7-11.8,1.6-17c7.4-11.9,23.2-13.4,33.3-7.3
						c16.4,9.9,18.1,26.8,11.3,38.5c-7,12.2-20.9,19.6-38,20.4C256.7,105.5,255.7,105.5,254.7,105.5L254.7,105.5z"/>
				</g>
				<g>
					<path class="st0" d="M322.6,137.7c-1.9,0-3.8-0.4-5.5-1.1c-7.9-3.5-9.9-9.2-9.2-13.5c0.9-5,4.4-6.9,7.1-7c3.3-0.1,6.2,2,7,5.1
						c0.1,0.6-0.2,1.2-0.8,1.3c-0.6,0.1-1.2-0.2-1.3-0.8c-0.6-2.5-2.9-3.6-4.8-3.5c-2,0.1-4.5,1.5-5.1,5.2
						c-0.8,4.5,2.2,8.6,7.9,11.1c4.7,2.1,10.6,0.7,14.5-3.4c4.1-4.2,4.9-10,2.2-15.5c-2.8-5.6-9.1-9.3-17-9.8l-63.8-0.3
						c-0.6,0-1.1-0.5-1.1-1.1c0-0.6,0.5-1.1,1.1-1.1l0,0l63.8,0.3c8.7,0.5,15.7,4.7,18.8,11c3.1,6.3,2.1,13-2.6,17.9
						C330.9,135.9,326.7,137.7,322.6,137.7L322.6,137.7z"/>
				</g>
				<g>
					<path class="st0" d="M299.2,100L299.2,100c-2.5,0-4.9-0.4-7.2-1.1c-0.3-0.1-0.6-0.4-0.7-0.7c-0.1-0.3,0-0.7,0.2-1
						c2.9-3.8,7-6.5,11.8-8c4.7-1.4,9.8-1.4,14.3,0.1c0.3,0.1,0.6,0.4,0.7,0.7c0.1,0.3,0,0.7-0.2,1c-3,3.8-7,6.6-11.8,8
						C303.9,99.6,301.6,100,299.2,100L299.2,100z M294.2,97.2c3.7,0.9,7.7,0.8,11.4-0.4c3.8-1.2,7.1-3.2,9.7-6
						c-3.7-0.9-7.7-0.8-11.4,0.4C300.1,92.4,296.8,94.4,294.2,97.2L294.2,97.2z"/>
				</g>
				<g>
					<path class="st0" d="M185.3,66.9c-0.3,0-0.6-0.1-0.8-0.3c-0.4-0.4-0.4-1.1,0.1-1.5c12.5-11.6,31-34.4,14.1-57.3
						c-0.4-0.5-0.3-1.2,0.2-1.5c0.5-0.4,1.2-0.2,1.5,0.2c18.6,25.2-3.9,50.5-14.4,60.2C185.9,66.8,185.6,66.9,185.3,66.9L185.3,66.9
						z"/>
				</g>
			</g>
			<g>
				<g>
					<path class="st0" d="M170.9,86.1c-1.1,0-2.1-0.1-3-0.4c-2.4-0.7-4.3-2.2-5.4-4.4c-1.4-2.6-1.4-5.3,0-7.4
						c1.4-2.1,3.8-3.4,6.3-3.2c2.2,0.1,4,1.3,5,3.3c0.3,0.5,0,1.2-0.5,1.4c-0.5,0.3-1.2,0.1-1.4-0.5c-0.6-1.3-1.8-2-3.2-2.1
						c-1.7-0.1-3.4,0.8-4.4,2.3c-0.7,1-1.2,2.8,0.1,5.2c0.9,1.7,2.3,2.8,4.1,3.3c3.4,0.9,8.1-0.2,12.8-3.2
						c14.5-8.9,31.5-31.5,37.8-46.1c0.2-0.5,0.9-0.8,1.4-0.6c0.5,0.2,0.8,0.9,0.6,1.4c-6.5,15.2-23.6,37.8-38.6,47.1
						C178.4,84.8,174.4,86.1,170.9,86.1L170.9,86.1z"/>
				</g>
				<g>
					<path class="st0" d="M144.3,105.5c-1,0-2,0-2.9-0.1c-17.1-0.8-31-8.2-38-20.4c-6.8-11.7-5-28.6,11.3-38.5
						c10.1-6.1,25.9-4.6,33.4,7.3c3.2,5.2,3.8,11.7,1.6,17c-2,4.7-6.1,7.9-11.4,9c-5.3,0.8-10.1-1-13.1-4.7c-2.6-3.2-3.4-7.5-2.1-11
						c1.7-4.5,6.1-6,9.5-5.5c3.9,0.6,6.6,3.4,6.9,7.2c0,0.6-0.4,1.1-1,1.2c-0.6,0-1.1-0.4-1.1-1c-0.2-3.4-2.8-4.9-5.1-5.3
						c-2.7-0.4-5.9,0.7-7.2,4.1c-1,2.8-0.3,6.2,1.8,8.9c1.5,1.8,4.8,4.7,11,3.9c4.6-0.9,8.1-3.7,9.8-7.7c2-4.6,1.4-10.4-1.4-15
						c-6.8-10.8-21.2-12.2-30.4-6.6c-15.2,9.1-16.8,24.8-10.6,35.5c6.7,11.5,19.9,18.6,36.3,19.3c20.8,1,50.5-8.5,71.4-38
						c0.3-0.5,1-0.6,1.5-0.3c0.5,0.3,0.6,1,0.3,1.5C194.2,95.3,165.5,105.5,144.3,105.5L144.3,105.5z"/>
				</g>
				<g>
					<path class="st0" d="M76.5,137.7c-4.1,0-8.3-1.8-11.4-5c-4.7-4.9-5.7-11.6-2.6-17.9c3.1-6.4,10.1-10.5,18.8-11l63.9-0.3h0
						c0.6,0,1.1,0.5,1.1,1.1c0,0.6-0.5,1.1-1.1,1.1l-63.8,0.3c-7.8,0.5-14.1,4.2-16.9,9.8c-2.7,5.4-1.8,11.2,2.2,15.5
						c4,4.1,9.8,5.5,14.5,3.4c5.7-2.5,8.7-6.7,7.9-11.1c-0.6-3.7-3.1-5.1-5.1-5.2c-1.9-0.1-4.2,1-4.8,3.5c-0.1,0.6-0.7,0.9-1.3,0.8
						c-0.6-0.1-0.9-0.7-0.8-1.3c0.8-3.1,3.7-5.2,7-5.1c2.8,0.1,6.3,2,7.1,7c0.7,4.2-1.3,10-9.2,13.5
						C80.2,137.3,78.3,137.7,76.5,137.7L76.5,137.7z"/>
				</g>
				<g>
					<path class="st0" d="M99.9,100c-2.4,0-4.8-0.4-7.1-1.1c-4.8-1.4-8.9-4.2-11.8-8c-0.2-0.3-0.3-0.6-0.2-1
						c0.1-0.3,0.4-0.6,0.7-0.7c4.5-1.5,9.6-1.5,14.3-0.1c4.8,1.5,8.9,4.2,11.8,8c0.2,0.3,0.3,0.6,0.2,1c-0.1,0.3-0.4,0.6-0.7,0.7
						C104.8,99.6,102.4,100,99.9,100L99.9,100z M83.7,90.8c2.6,2.8,5.9,4.9,9.7,6c3.8,1.1,7.8,1.3,11.4,0.4c-2.6-2.8-5.9-4.9-9.7-6
						C91.4,90.1,87.4,89.9,83.7,90.8L83.7,90.8z"/>
				</g>
				<g>
					<path class="st0" d="M213.7,66.9c-0.3,0-0.5-0.1-0.7-0.3c-10.5-9.7-32.9-35-14.4-60.2c0.4-0.5,1-0.6,1.5-0.2
						c0.5,0.4,0.6,1,0.2,1.5c-16.9,22.9,1.6,45.7,14.1,57.3c0.4,0.4,0.5,1.1,0.1,1.5C214.3,66.8,214,66.9,213.7,66.9L213.7,66.9z"/>
				</g>
			</g>
		</g>
		<g>
			<g>
				<g>
					<path class="st0" d="M52.1,333.7c-0.2,0-0.5-0.1-0.6-0.2c-0.5-0.4-0.6-1-0.2-1.5c9.6-12.7,20.6-38.7,21.1-55.7
						c0.2-5.6-1.2-10.2-3.7-12.7c-1.4-1.3-3-2-4.9-1.9c-2.8,0.1-4,1.4-4.6,2.6c-0.8,1.5-0.7,3.5,0.2,4.9c0.8,1.2,2,1.8,3.4,1.7
						c0.6,0,1.1,0.4,1.1,1c0,0.6-0.4,1.1-1,1.1c-2.2,0.1-4.2-0.8-5.3-2.6c-1.4-2.1-1.5-4.9-0.3-7.1c1.2-2.3,3.4-3.6,6.4-3.7
						c2.5-0.1,4.7,0.8,6.5,2.5c2.9,2.9,4.5,8.1,4.3,14.3c-0.5,17.7-11.5,43.7-21.5,57C52.8,333.6,52.4,333.7,52.1,333.7L52.1,333.7z
						"/>
				</g>
				<g>
					<path class="st0" d="M75.9,312.7c-0.1,0-0.3,0-0.4-0.1c-0.5-0.2-0.8-0.9-0.5-1.4c15.1-32.9,8.4-63.3-2.8-80.8
						c-8.8-13.8-21.6-21.7-34.9-21.8c0,0,0,0,0,0c-12.4,0-25.1,9.2-25.4,26.9c-0.2,10.8,8.2,22.6,20.9,23c5.4,0.2,10.7-2.2,13.7-6.3
						c2.6-3.5,3.2-7.9,1.8-12.4c-2.3-5.7-6.5-7.2-8.8-7.5c-3.3-0.5-6.7,0.6-8.6,2.9c-2.3,2.8-1.7,6.2,0,8.3c1.4,1.8,4,3.2,7.1,1.7
						c0.5-0.3,1.2,0,1.4,0.5c0.3,0.5,0,1.2-0.5,1.4c-3.5,1.7-7.3,0.8-9.7-2.3c-2.1-2.7-3-7.3,0-11c2.3-2.8,6.5-4.3,10.5-3.6
						c4.7,0.7,8.5,4,10.5,8.9c1.7,5.2,1,10.3-2,14.4c-3.4,4.6-9.4,7.3-15.5,7.1c-14-0.5-23.2-13.4-23-25.2
						c0.4-19.1,14.2-29.1,27.6-29.1c14.1,0,27.4,8.3,36.7,22.8c11.5,18,18.4,49.2,2.9,82.9C76.7,312.5,76.3,312.7,75.9,312.7
						L75.9,312.7z"/>
				</g>
				<g>
					<path class="st0" d="M75,234c-0.4,0-0.7-0.2-0.9-0.5L42.4,178c-3.9-7.8-3.8-15.9,0.1-21.8c3.9-5.8,10.2-8.3,16.8-6.7
						c6.4,1.6,11.2,6.7,11.8,12.7c0.9,8.6-3,13.2-7.1,14.7c-4.7,1.7-8.1-0.4-9.6-2.7c-1.8-2.8-1.4-6.3,0.9-8.6
						c0.4-0.4,1.1-0.4,1.5,0c0.4,0.4,0.4,1.1,0,1.5c-1.8,1.8-1.6,4.3-0.6,5.9c1.1,1.7,3.5,3.1,7,1.8c4.2-1.6,6.4-6.2,5.7-12.4
						c-0.6-5.1-4.7-9.5-10.2-10.9c-5.7-1.4-11.1,0.8-14.5,5.8c-3.5,5.2-3.5,12.6,0,19.6L76,232.4c0.3,0.5,0.1,1.2-0.4,1.5
						C75.4,233.9,75.2,234,75,234L75,234z"/>
				</g>
				<g>
					<path class="st0" d="M50,204.1c0,0-0.1,0-0.1,0c-4.7-0.7-9.2-2.8-12.9-6.3c-3.7-3.4-6.1-7.7-7.1-12.4c-0.1-0.3,0-0.7,0.3-1
						c0.2-0.3,0.6-0.4,0.9-0.3c4.8,0.7,9.2,2.8,12.8,6.3c3.7,3.4,6.1,7.7,7.1,12.4c0.1,0.3,0,0.7-0.3,1
						C50.6,204,50.3,204.1,50,204.1L50,204.1z M32.5,186.6c1.1,3.6,3.2,7,6,9.7c2.9,2.7,6.4,4.6,10.1,5.4c-1.1-3.7-3.1-7-6-9.7
						C39.6,189.3,36.2,187.4,32.5,186.6L32.5,186.6z"/>
				</g>
				<g>
					<path class="st0" d="M17.8,329.8c-0.1,0-0.3,0-0.4-0.1c-0.5-0.2-0.8-0.9-0.6-1.4c12.5-28.7,45.6-21.9,59.3-17.6
						c0.6,0.2,0.9,0.8,0.7,1.3c-0.2,0.6-0.8,0.9-1.4,0.7c-16.3-5.1-45.3-9.6-56.7,16.5C18.7,329.5,18.3,329.8,17.8,329.8L17.8,329.8
						z"/>
				</g>
			</g>
			<g>
				<g>
					<path class="st0" d="M94.6,327.4c-0.1,0-0.2,0-0.3,0c-2.5-0.1-4.8-1.6-6-3.8c-1-1.9-0.8-4.1,0.4-6c0.3-0.5,1-0.6,1.5-0.3
						c0.5,0.3,0.6,1,0.3,1.5c-0.8,1.2-0.9,2.6-0.3,3.8c0.8,1.5,2.4,2.6,4.1,2.7c1.2,0.1,3-0.4,4.5-2.7c1-1.6,1.3-3.3,0.8-5.2
						c-0.9-3.4-4.2-6.9-9.2-9.5c-15-8.1-43-11.6-58.8-9.6c-0.6,0.1-1.1-0.4-1.2-0.9c-0.1-0.6,0.4-1.1,0.9-1.2
						c16.5-2,44.5,1.5,60.1,9.9c5.5,2.9,9.2,6.9,10.2,10.9c0.6,2.4,0.3,4.8-1.1,6.9C99.2,326.1,97.1,327.4,94.6,327.4L94.6,327.4z"
						/>
				</g>
				<g>
					<path class="st0" d="M110,386.8c-4.9,0-10.1-1.3-15.5-4.3c-10.3-5.7-17-20.2-10.3-32.5c2.9-5.4,8.2-9.2,13.9-9.9
						c5.1-0.6,9.9,1.3,13.5,5.4c3.3,4.3,4.2,9.2,2.5,13.6c-1.5,3.8-4.8,6.7-8.4,7.3c-4.7,0.8-8.2-2.3-9.5-5.5
						c-1.5-3.7-0.4-7.4,2.8-9.6c0.5-0.3,1.2-0.2,1.5,0.3c0.3,0.5,0.2,1.2-0.3,1.5c-2.8,1.9-2.9,4.9-2,7c1,2.5,3.6,4.7,7.2,4.1
						c2.9-0.5,5.6-2.8,6.8-6c0.8-2.2,1.7-6.6-2.1-11.5c-3.1-3.5-7.2-5.1-11.6-4.6c-5,0.6-9.7,3.9-12.3,8.7c-6,11.3,0,24.4,9.5,29.6
						c15.5,8.6,29.9,2.2,36.1-8.6c6.6-11.5,6.1-26.5-1.4-41.1c-9.6-18.5-32.6-39.4-68.6-42.8c-0.6-0.1-1-0.6-1-1.2
						c0.1-0.6,0.6-1,1.2-1c36.9,3.5,60.5,25,70.3,44c7.9,15.2,8.4,31,1.4,43.2C128.9,381,120.3,386.8,110,386.8L110,386.8z"/>
				</g>
				<g>
					<path class="st0" d="M178.5,393.7c-6.7,0-13.3-4-17.8-10.8l-32.2-55.2c-0.3-0.5-0.1-1.2,0.4-1.5c0.5-0.3,1.2-0.1,1.5,0.4
						l32.2,55.2c4.3,6.5,10.7,10.2,17,9.7c6.1-0.4,10.6-4,12.3-9.7c1.6-5.5-0.1-11.2-4.3-14.3c-5-3.7-10.1-4.2-13.6-1.3
						c-2.9,2.4-2.9,5.2-1.9,7c0.9,1.7,2.9,3.1,5.4,2.4c0.6-0.2,1.2,0.2,1.3,0.7c0.2,0.6-0.2,1.2-0.7,1.3c-3.1,0.9-6.4-0.6-7.9-3.5
						c-1.3-2.4-1.4-6.4,2.5-9.7c3.3-2.8,9.3-3.9,16.3,1.2c4.9,3.6,7,10.3,5.1,16.6c-1.9,6.5-7.2,10.7-14.2,11.2
						C179.2,393.7,178.9,393.7,178.5,393.7L178.5,393.7z"/>
				</g>
				<g>
					<path class="st0" d="M148.7,390.2c-0.3,0-0.5-0.1-0.7-0.3c-3.6-3.2-6.1-7.5-7.2-12.3c-1.1-4.9-0.8-9.8,1-14.3
						c0.1-0.3,0.4-0.6,0.8-0.6c0.3-0.1,0.7,0,1,0.2c3.6,3.2,6.1,7.5,7.2,12.3c1.1,4.9,0.8,9.8-1,14.3c-0.1,0.3-0.4,0.6-0.8,0.6
						C148.9,390.2,148.8,390.2,148.7,390.2L148.7,390.2z M143.2,365.7c-1.1,3.6-1.3,7.5-0.4,11.4c0.9,3.9,2.8,7.3,5.4,10.1
						c1.1-3.6,1.3-7.5,0.4-11.4C147.7,371.9,145.9,368.4,143.2,365.7L143.2,365.7z"/>
				</g>
				<g>
					<path class="st0" d="M22.4,330.1c-1.5,0-3-0.1-4.6-0.3c-0.6-0.1-1-0.6-1-1.2c0.1-0.6,0.6-1,1.2-1c28.3,3.2,38.8-24.2,42.6-40.9
						c0.1-0.6,0.7-0.9,1.3-0.8c0.6,0.1,0.9,0.7,0.8,1.3C59.7,300.5,49.9,330.1,22.4,330.1L22.4,330.1z"/>
				</g>
			</g>
		</g>
		<g>
			<g>
				<g>
					<path class="st0" d="M347.1,333.7c-0.3,0-0.6-0.1-0.9-0.4c-10-13.2-21-39.3-21.5-57c-0.2-6.2,1.4-11.4,4.3-14.3
						c1.8-1.7,4-2.6,6.5-2.5c3,0.1,5.2,1.4,6.4,3.7c1.1,2.2,1,5-0.3,7.1c-1.2,1.8-3.1,2.8-5.3,2.6c-0.6,0-1-0.5-1-1.1
						c0-0.6,0.6-1,1.1-1c1.4,0.1,2.7-0.5,3.4-1.7c0.9-1.4,1-3.4,0.2-4.9c-0.6-1.1-1.8-2.4-4.6-2.6c-1.9-0.1-3.5,0.6-4.9,1.9
						c-2.5,2.5-3.8,7.1-3.7,12.7c0.5,17,11.5,43,21.1,55.7c0.4,0.5,0.3,1.2-0.2,1.5C347.5,333.7,347.3,333.7,347.1,333.7
						L347.1,333.7z"/>
				</g>
				<g>
					<path class="st0" d="M323.3,312.7c-0.4,0-0.8-0.2-1-0.6c-15.4-33.7-8.6-64.9,2.9-82.9c9.2-14.4,22.6-22.7,36.7-22.8
						c0,0,0,0,0,0c13.5,0,27.2,10,27.6,29.1c0.2,11.8-9,24.8-23,25.2c-6.1,0.2-12.1-2.5-15.5-7.1c-3.1-4.1-3.8-9.2-2.1-14.4
						c2-5,5.9-8.3,10.6-9c4.1-0.6,8.2,0.8,10.5,3.6c3,3.7,2.1,8.3,0,11c-2.4,3.1-6.3,4-9.7,2.3c-0.5-0.3-0.8-0.9-0.5-1.4
						c0.3-0.5,0.9-0.8,1.4-0.5c3,1.5,5.7,0.1,7.1-1.7c1.7-2.1,2.3-5.5,0-8.3c-1.9-2.3-5.2-3.4-8.6-2.9c-2.3,0.4-6.5,1.8-8.9,7.6
						c-1.5,4.4-0.8,8.8,1.8,12.3c3,4,8.3,6.4,13.7,6.3c12.8-0.4,21.1-12.3,20.9-23c-0.3-17.7-13-26.9-25.4-26.9c0,0,0,0,0,0
						c-13.3,0-26,7.9-34.9,21.8c-11.2,17.5-17.8,48-2.8,80.8c0.2,0.5,0,1.2-0.5,1.4C323.6,312.7,323.5,312.7,323.3,312.7
						L323.3,312.7z"/>
				</g>
				<g>
					<path class="st0" d="M324.2,234c-0.2,0-0.4,0-0.5-0.1c-0.5-0.3-0.7-1-0.4-1.5l31.7-55.4c3.5-7,3.5-14.3,0-19.6
						c-3.4-5-8.8-7.2-14.5-5.8c-5.5,1.4-9.6,5.7-10.2,10.9c-0.7,6.2,1.4,10.9,5.7,12.4c3.5,1.3,6-0.1,7-1.8c1-1.6,1.2-4.1-0.6-5.9
						c-0.4-0.4-0.4-1.1,0-1.5c0.4-0.4,1.1-0.4,1.5,0c2.3,2.3,2.7,5.8,0.9,8.6c-1.5,2.3-4.9,4.4-9.6,2.7c-4-1.5-8-6.1-7.1-14.7
						c0.7-6,5.4-11.2,11.8-12.7c6.6-1.6,12.9,0.9,16.8,6.7c3.9,5.9,4,14,0.1,21.8l-31.7,55.5C324.9,233.8,324.5,234,324.2,234
						L324.2,234z"/>
				</g>
				<g>
					<path class="st0" d="M349.2,204.1c-0.3,0-0.6-0.1-0.8-0.3c-0.2-0.3-0.3-0.6-0.3-1c1-4.7,3.4-9,7.1-12.4
						c3.6-3.4,8.1-5.6,12.8-6.3c0.3,0,0.7,0.1,0.9,0.3c0.2,0.3,0.3,0.6,0.3,1c-1,4.7-3.4,9-7.1,12.4c-3.7,3.4-8.1,5.6-12.9,6.3
						C349.3,204.1,349.2,204.1,349.2,204.1L349.2,204.1z M366.7,186.6c-3.7,0.8-7.2,2.7-10.1,5.4c-2.9,2.7-5,6.1-6.1,9.7
						c3.7-0.8,7.2-2.7,10.1-5.4C363.6,193.6,365.7,190.2,366.7,186.6L366.7,186.6z"/>
				</g>
				<g>
					<path class="st0" d="M381.4,329.8c-0.4,0-0.8-0.2-1-0.6c-11.4-26.1-40.4-21.5-56.7-16.5c-0.6,0.2-1.2-0.1-1.3-0.7
						c-0.2-0.6,0.1-1.2,0.7-1.3c13.7-4.2,46.8-11,59.3,17.6c0.2,0.5,0,1.2-0.6,1.4C381.6,329.8,381.5,329.8,381.4,329.8L381.4,329.8
						z"/>
				</g>
			</g>
			<g>
				<g>
					<path class="st0" d="M304.6,327.4c-2.4,0-4.6-1.3-6.1-3.7c-1.3-2.1-1.7-4.5-1.1-6.9c1-4,4.8-7.9,10.2-10.9
						c15.6-8.4,43.6-11.9,60.1-9.9c0.6,0.1,1,0.6,0.9,1.2c-0.1,0.6-0.6,1-1.2,0.9c-15.8-1.9-43.8,1.6-58.8,9.6
						c-4.9,2.7-8.3,6.1-9.2,9.5c-0.5,1.8-0.2,3.6,0.8,5.2c1.5,2.3,3.3,2.8,4.5,2.7c1.7-0.1,3.4-1.1,4.1-2.7c0.6-1.2,0.5-2.6-0.3-3.8
						c-0.3-0.5-0.2-1.2,0.3-1.5c0.5-0.3,1.2-0.2,1.5,0.3c1.2,1.9,1.4,4,0.4,6c-1.1,2.2-3.5,3.7-6,3.8
						C304.8,327.4,304.7,327.4,304.6,327.4L304.6,327.4z"/>
				</g>
				<g>
					<path class="st0" d="M289.2,386.8c-10.3,0-18.9-5.8-23.5-13.7c-7-12.2-6.5-27.9,1.4-43.1c9.8-19,33.5-40.5,70.3-44
						c0.6-0.1,1.1,0.4,1.2,1c0.1,0.6-0.4,1.1-1,1.2c-36,3.4-59,24.3-68.6,42.8c-7.5,14.6-8,29.5-1.4,41.1
						c6.2,10.8,20.6,17.2,36.1,8.6c9.4-5.2,15.5-18.4,9.5-29.6c-2.6-4.8-7.3-8.2-12.3-8.7c-4.4-0.5-8.5,1.1-11.6,4.7
						c-3.8,4.9-2.9,9.2-2.1,11.4c1.2,3.1,3.9,5.5,6.8,6c3.6,0.6,6.2-1.6,7.2-4.1c0.9-2.1,0.8-5.1-2-7c-0.5-0.3-0.6-1-0.3-1.5
						c0.3-0.5,1-0.6,1.5-0.3c3.2,2.2,4.3,5.9,2.8,9.6c-1.3,3.2-4.8,6.3-9.5,5.5c-3.6-0.6-6.9-3.5-8.4-7.3c-1.7-4.4-0.8-9.4,2.5-13.6
						c3.6-4.1,8.4-6,13.5-5.4c5.7,0.7,11,4.5,13.9,9.9c6.6,12.4,0,26.8-10.3,32.5C299.4,385.5,294.1,386.8,289.2,386.8L289.2,386.8z
						"/>
				</g>
				<g>
					<path class="st0" d="M220.7,393.7c-0.4,0-0.7,0-1.1,0c-7-0.5-12.3-4.7-14.2-11.2c-1.8-6.3,0.2-13,5.1-16.6
						c6.9-5.1,13-4,16.3-1.2c3.9,3.2,3.7,7.2,2.5,9.7c-1.5,2.9-4.8,4.4-7.9,3.5c-0.6-0.2-0.9-0.8-0.8-1.3c0.2-0.6,0.8-0.9,1.3-0.7
						c2.5,0.7,4.5-0.7,5.4-2.4c1-1.8,1-4.6-1.9-7c-3.5-2.9-8.6-2.4-13.6,1.3c-4.2,3.1-5.9,8.8-4.3,14.3c1.6,5.6,6.2,9.2,12.3,9.7
						c6.3,0.4,12.6-3.2,17-9.8l32.1-55.1c0.3-0.5,1-0.7,1.5-0.4c0.5,0.3,0.7,1,0.4,1.5l-32.2,55.2
						C234,389.7,227.4,393.7,220.7,393.7L220.7,393.7z"/>
				</g>
				<g>
					<path class="st0" d="M250.5,390.2c-0.1,0-0.2,0-0.3,0c-0.3-0.1-0.6-0.3-0.7-0.6c-1.8-4.4-2.1-9.4-1-14.3
						c1.1-4.9,3.6-9.1,7.2-12.3c0.3-0.2,0.6-0.3,1-0.2c0.3,0.1,0.6,0.3,0.8,0.6c1.8,4.4,2.1,9.4,1,14.3c-1.1,4.9-3.6,9.1-7.2,12.3
						C251,390.1,250.7,390.2,250.5,390.2L250.5,390.2z M256,365.7c-2.6,2.7-4.5,6.2-5.4,10.1c-0.9,3.9-0.8,7.8,0.4,11.4
						c2.6-2.7,4.5-6.2,5.4-10.1C257.2,373.2,257.1,369.3,256,365.7L256,365.7z"/>
				</g>
				<g>
					<path class="st0" d="M376.8,330.1c-27.5,0-37.3-29.6-40.3-42.8c-0.1-0.6,0.2-1.2,0.8-1.3c0.6-0.1,1.2,0.2,1.3,0.8
						c3.8,16.6,14.3,44.1,42.6,40.9c0.6-0.1,1.1,0.4,1.2,1c0.1,0.6-0.4,1.1-1,1.2C379.9,330,378.3,330.1,376.8,330.1L376.8,330.1z"
						/>
				</g>
			</g>
		</g>
	</g>
	<g>
		<path class="st0" d="M97.3,289.8c-3.7,0-6.8-3-6.8-6.8c0-3.7,3-6.8,6.8-6.8c3.7,0,6.8,3,6.8,6.8C104,286.8,101,289.8,97.3,289.8
			L97.3,289.8z M97.3,278.4c-2.5,0-4.6,2.1-4.6,4.6c0,2.6,2.1,4.6,4.6,4.6c2.6,0,4.6-2.1,4.6-4.6C101.9,280.5,99.8,278.4,97.3,278.4
			L97.3,278.4z"/>
	</g>
	<g>
		<path class="st0" d="M199.6,105.4c-3.7,0-6.8-3-6.8-6.8c0-3.7,3-6.8,6.8-6.8c3.7,0,6.8,3,6.8,6.8
			C206.4,102.4,203.4,105.4,199.6,105.4L199.6,105.4z M199.6,94c-2.6,0-4.6,2.1-4.6,4.6c0,2.6,2.1,4.6,4.6,4.6
			c2.6,0,4.6-2.1,4.6-4.6C204.2,96.1,202.2,94,199.6,94L199.6,94z"/>
	</g>
	<g>
		<path class="st0" d="M301.5,289.4c-3.7,0-6.8-3-6.8-6.8c0-3.7,3-6.8,6.8-6.8c3.7,0,6.8,3,6.8,6.8
			C308.3,286.4,305.3,289.4,301.5,289.4L301.5,289.4z M301.5,278c-2.5,0-4.6,2.1-4.6,4.6c0,2.6,2.1,4.6,4.6,4.6
			c2.6,0,4.6-2.1,4.6-4.6C306.1,280.1,304.1,278,301.5,278L301.5,278z"/>
	</g>
</g>
<g>
	<path class="st0" d="M274.6,271.2l-0.9-0.3c-23.5-8.5-48.4-12.8-74.1-12.8c-25.7,0-50.6,4.3-74.1,12.8l-0.9,0.3l-23.7-41.1l1.3-0.5
		c30.8-11.6,63.6-17.5,97.4-17.5c33.8,0,66.6,5.9,97.4,17.5l1.3,0.5L274.6,271.2L274.6,271.2z M104.3,231.4l21.3,36.9
		c23.5-8.4,48.4-12.7,74-12.7c25.6,0,50.5,4.3,74,12.7l21.3-36.9c-30.2-11.2-62.2-16.9-95.3-16.9
		C166.5,214.5,134.5,220.2,104.3,231.4L104.3,231.4z"/>
</g>
<g>
	<path class="st0" d="M228.1,157.2c-2.1-0.2-4,1-4.1,2.8c-0.1,1.2,0.5,2.2,1.5,2.9c-5.6,5.4-8.2,8.2-13.2,13.9
		c-3.5-8.2-7.4-16.3-11.6-24.2c1.6-0.4,2.7-1.6,2.7-3.1c0-1.8-1.7-3.3-3.9-3.3c-2.2,0-4,1.5-3.9,3.3c0,1.4,1.2,2.6,2.7,3.1
		c-4.2,7.9-8.1,16-11.6,24.2c-5-5.7-7.6-8.5-13.1-13.9c1-0.7,1.7-1.8,1.6-3c-0.2-1.8-2-3.1-4.1-2.8c-2.1,0.2-3.6,1.9-3.4,3.7
		c0.2,1.8,2.1,3,4.1,2.8c0.1,0,0.1,0,0.2,0c2.3,8.5,4.5,17.1,6.6,25.7c1.3-0.1,2-0.2,3.3-0.3c5.7-0.4,8.6-0.6,14.3-0.7
		c2.7,0,4,0,6.6,0c5.7,0.1,8.6,0.2,14.3,0.7c1.3,0.1,2,0.2,3.3,0.3c2.1-8.6,4.3-17.2,6.6-25.7c0.1,0,0.2,0,0.3,0
		c2.1,0.2,3.9-1,4.1-2.8C231.8,159.1,230.2,157.5,228.1,157.2z M179.8,196.8c13.3-0.9,26.3-0.9,39.6,0c0.2-2,0.3-2.9,0.5-4.9
		c-13.6-1-26.9-1-40.5,0C179.5,193.9,179.6,194.9,179.8,196.8z"/>
</g>
<g>
	<path class="st0" d="M153.6,253.2l-8.4,1.6l-0.2-1.1l1.4-1.5l-4.2-22.3l-1.6-0.8l-0.2-1.1c3-0.5,5.1-1,8.1-1.5
		c3.4-0.7,6.2-0.2,6.9,3.8l0.7,3.9c0.3,1.7,0,3.3-1.7,4c2.2,0.1,3.6,1.5,4.1,3.9l0.9,4.5C160.1,251,157.2,252.5,153.6,253.2
		C153.6,253.2,153.6,253.2,153.6,253.2z M151.3,230.9c-0.3-1.5-1.1-2.4-2.6-2.1l-2.7,0.5l1.8,9.3l2.6-0.5c1.8-0.3,1.9-1.9,1.6-3.3
		L151.3,230.9z M154.4,242.7c-0.4-2.2-1.4-3.1-3.6-2.7l-2.5,0.5l1.8,9.3c0.1,0.7,0,1.1-0.6,1.4l0,0.2l3.7-0.7
		c2.1-0.4,2.5-1.5,2.1-3.6L154.4,242.7z"/>
	<path class="st0" d="M176.2,241.4c-0.9-2-1.5-2.5-3.6-2.3c0.2,2.4,0.6,6.3,0.8,8.8l1.7,1.1l0.1,1.2c-2.2,0.2-5,0.5-7.1,0.7
		l-0.1-1.2l1.5-1.4c-0.7-7.5-1.4-15.1-2.1-22.6l-1.4-1l-0.1-1.2l7.6-0.7c4-0.4,7.5,0.9,8,5.7c0.1,1.1,0.2,2.4,0.3,3.5
		c0.3,3.3-1.3,5.3-3.6,6.1c1.2,0.5,1.7,1.2,2.2,2.4c0.7,1.6,1.5,3.2,2.2,4.8c0.5,1,1.2,2.4,2.4,2l0.1,1.6c-0.8,0.5-1.9,0.7-2.7,0.8
		c-2.4,0.3-2.8-1.5-3.8-3.5L176.2,241.4z M171.3,225.6c0.4,4.2,0.6,7,1,11.2l2.3-0.2c2.5-0.2,3.2-1.7,3-4.2
		c-0.1-1.2-0.2-2.4-0.3-3.5c-0.2-2.4-1.1-3.8-3.7-3.5L171.3,225.6z"/>
	<path class="st0" d="M195,241.7l-1.1,5.3l1.4,0.7l0,1.3l-5.3,0.1l0-1.3l1.3-0.8c1.7-8,3.7-17.5,5.5-25.5l4,0l6.3,25.2l1.3,0.9
		l0,1.3l-6.8,0.1l0-1l1.3-0.9l-1.3-5.4L195,241.7z M198.2,226.5c-0.8,3.4-1.8,8.3-2.7,12.9l5.7-0.1L198.2,226.5L198.2,226.5z"/>
	<path class="st0" d="M218.9,247.3l1.4,1.2l-0.1,1.3l-5.9-0.5l0.1-1.2l1.6-0.9l2-22.6l-1.2-1.2l0.1-1.2l4.9,0.4
		c1.2,0.2,1.7,0.5,1.9,1.9l2.5,12.3l0.9,7.5l0.1,0c0.2-1.9,0.3-4.4,0.4-6.2l1.1-12.5l-1.3-1.2l0.1-1.3l5.5,0.5l-0.1,1.3l-1.5,1
		l-2.2,24.9l-3.4-0.3c-1-0.1-1.4-0.7-1.5-1.5l-4-22c0,0-0.1,0-0.1,0l0.1,3.7L218.9,247.3z"/>
	<path class="st0" d="M254.7,247.6c-0.9,4.8-4.4,6.5-8.7,5.7c-2.7-0.5-5.4-1-8.1-1.5l0.2-1.1l1.8-0.9c1.4-7.4,2.8-14.8,4.2-22.1
		l-1.1-1.5l0.2-1.1l7.9,1.5c3.9,0.7,7,3.4,6.1,8.4L254.7,247.6z M248.2,228.4c-0.8,4-3.1,16.4-3.9,20.4c-0.1,0.7-0.4,1-1.1,1l0,0.3
		c1.1,0.2,2.2,0.4,3.3,0.6c2.7,0.5,3.8-1.4,4.2-3.9c0.3-1.6,2.1-11.2,2.4-12.9c0.5-2.4,0.2-4.6-2.5-5.1L248.2,228.4z"/>
</g>
<g>
	<path class="st0" d="M176.2,293.2l1,0.7v0.8h-3.8v-0.8l1-0.7v-14.1l-0.9-0.7v-0.7h3.2c0.8,0,1.1,0.2,1.3,1.1l2.3,7.5l1,4.6h0.1
		c0-1.2-0.1-2.7-0.1-3.9v-7.8l-0.9-0.7v-0.8h3.6v0.8l-0.9,0.7v15.6h-2.2c-0.6,0-0.9-0.4-1.1-0.9l-3.8-13.4c0,0-0.1,0-0.1,0l0.3,2.3
		V293.2z"/>
	<path class="st0" d="M188.7,290.1l-0.8,3.3l0.9,0.5v0.8h-3.4v-0.8l0.9-0.5c1.2-5,2.5-10.9,3.8-15.8h2.6l3.9,15.7l0.9,0.6v0.8H193
		v-0.6l0.8-0.6l-0.8-3.3H188.7z M190.8,280.7c-0.5,2.1-1.2,5.2-1.8,8h3.7L190.8,280.7L190.8,280.7z"/>
	<path class="st0" d="M201.4,293.2l1,0.7v0.8h-3.7v-0.8l1-0.7v-14.1l-0.9-0.7v-0.7h3.5c1.2,0,1.6,0.1,1.8,1.2
		c0.9,4.8,1.3,7.9,1.8,12.6h0l2-12.7c0.2-0.9,0.5-1.1,1.5-1.1h3.7v0.7l-0.9,0.7v14.1l1,0.8v0.7h-4.7V294l1-0.8c0-11.4,0-11.3,0-11.3
		v-2.5h-0.1l-2.6,15.1h-2.1c-0.5,0-0.8-0.2-0.9-0.7c-0.8-4.8-1.5-9.4-2.3-14.2h-0.4l0.1,3.1V293.2z"/>
	<path class="st0" d="M215.7,294.7V294l1.1-0.8V279l-0.9-0.7v-0.6h8.7v3.8h-1.3l-0.7-2.3h-3.2v6.3h2.2l0.7-1.3h0.7v4.1h-0.7
		l-0.7-1.2h-2.2v5.3c0,0.4-0.1,0.6-0.5,0.8v0.1h4l0.9-2.3h1.1v3.8H215.7z"/>
</g>
</svg>
